<?xml version="1.0" encoding="UTF-8" standalone="no"?>
<!-- Created with Inkscape (http://www.inkscape.org/) -->

<svg
   xmlns:dc="http://purl.org/dc/elements/1.1/"
   xmlns:cc="http://creativecommons.org/ns#"
   xmlns:rdf="http://www.w3.org/1999/02/22-rdf-syntax-ns#"
   xmlns:svg="http://www.w3.org/2000/svg"
   xmlns="http://www.w3.org/2000/svg"
   xmlns:sodipodi="http://sodipodi.sourceforge.net/DTD/sodipodi-0.dtd"
   xmlns:inkscape="http://www.inkscape.org/namespaces/inkscape"
   width="87.042091mm"
   height="68.55291mm"
   viewBox="0 0 87.042091 68.55291"
   version="1.1"
   id="svg2407"
   inkscape:version="0.92.3 (2405546, 2018-03-11)"
   sodipodi:docname="multi-server.svg">
  <defs
     id="defs2401">
    <marker
       inkscape:stockid="Arrow1Lend"
       orient="auto"
       refY="0"
       refX="0"
       id="Arrow1Lend"
       style="overflow:visible"
       inkscape:isstock="true">
      <path
         id="path5554"
         d="M 0,0 5,-5 -12.5,0 5,5 Z"
         style="fill:#000000;fill-opacity:1;fill-rule:evenodd;stroke:#000000;stroke-width:1.00000003pt;stroke-opacity:1"
         transform="matrix(-0.8,0,0,-0.8,-10,0)"
         inkscape:connector-curvature="0" />
    </marker>
    <marker
       inkscape:stockid="Arrow2Lstart"
       orient="auto"
       refY="0"
       refX="0"
       id="Arrow2Lstart"
       style="overflow:visible"
       inkscape:isstock="true">
      <path
         id="path5569"
         style="fill:#000000;fill-opacity:1;fill-rule:evenodd;stroke:#000000;stroke-width:0.625;stroke-linejoin:round;stroke-opacity:1"
         d="M 8.7185878,4.0337352 -2.2072895,0.01601326 8.7185884,-4.0017078 c -1.7454984,2.3720609 -1.7354408,5.6174519 -6e-7,8.035443 z"
         transform="matrix(1.1,0,0,1.1,1.1,0)"
         inkscape:connector-curvature="0" />
    </marker>
    <marker
       inkscape:stockid="Arrow2Lend"
       orient="auto"
       refY="0"
       refX="0"
       id="Arrow2Lend"
       style="overflow:visible"
       inkscape:isstock="true">
      <path
         id="path5572"
         style="fill:#000000;fill-opacity:1;fill-rule:evenodd;stroke:#000000;stroke-width:0.625;stroke-linejoin:round;stroke-opacity:1"
         d="M 8.7185878,4.0337352 -2.2072895,0.01601326 8.7185884,-4.0017078 c -1.7454984,2.3720609 -1.7354408,5.6174519 -6e-7,8.035443 z"
         transform="matrix(-1.1,0,0,-1.1,-1.1,0)"
         inkscape:connector-curvature="0" />
    </marker>
  </defs>
  <sodipodi:namedview
     id="base"
     pagecolor="#ffffff"
     bordercolor="#666666"
     borderopacity="1.0"
     inkscape:pageopacity="0.0"
     inkscape:pageshadow="2"
     inkscape:zoom="2.4108305"
     inkscape:cx="125.43089"
     inkscape:cy="105.97626"
     inkscape:document-units="mm"
     inkscape:current-layer="layer1"
     showgrid="false"
     inkscape:window-width="1920"
     inkscape:window-height="1025"
     inkscape:window-x="0"
     inkscape:window-y="27"
     inkscape:window-maximized="1"
     fit-margin-top="2"
     fit-margin-left="2"
     fit-margin-bottom="2"
     fit-margin-right="2" />
  <metadata
     id="metadata2404">
    <rdf:RDF>
      <cc:Work
         rdf:about="">
        <dc:format>image/svg+xml</dc:format>
        <dc:type
           rdf:resource="http://purl.org/dc/dcmitype/StillImage" />
        <dc:title></dc:title>
      </cc:Work>
    </rdf:RDF>
  </metadata>
  <g
     inkscape:label="Layer 1"
     inkscape:groupmode="layer"
     id="layer1"
     transform="translate(-10.492062,-88.25432)">
    <g
       id="g6838"
       transform="translate(-13.861804,9.1380583)">
      <g
         style="opacity:1;fill:#000000;fill-opacity:0.99607843;stroke:#000400;stroke-opacity:0.99470903"
         transform="matrix(0.18900905,0,0,0.18900905,27.46315,122.83423)"
         id="g7673-2-8-1-3-7-3">
        <path
           style="fill:#000000;fill-opacity:0.99607843;stroke:#000400;stroke-opacity:0.99470903"
           inkscape:connector-curvature="0"
           d="M 149.924,120.314 H 68.266 c -0.553,0 -1,-0.447 -1,-1 v -23.38 c 0,-0.552 0.447,-1 1,-1 h 81.658 c 0.553,0 1,0.448 1,1 v 23.381 c 0,0.552 -0.447,0.999 -1,0.999 z m -80.658,-2 h 79.658 V 96.934 H 69.266 Z"
           id="path7675-7-4-8-0-7-6" />
        <path
           style="fill:#000000;fill-opacity:0.99607843;stroke:#000400;stroke-opacity:0.99470903"
           inkscape:connector-curvature="0"
           d="m 68.266,96.934 c -0.365,0 -0.719,-0.201 -0.893,-0.55 -0.25,-0.494 -0.051,-1.095 0.443,-1.343 l 13.846,-6.969 c 0.141,-0.07 0.293,-0.107 0.449,-0.107 h 53.967 c 0.156,0 0.311,0.037 0.449,0.107 l 13.846,6.969 c 0.494,0.248 0.691,0.849 0.443,1.343 -0.246,0.493 -0.848,0.693 -1.342,0.443 L 135.839,89.965 H 82.35 l -13.635,6.862 c -0.145,0.072 -0.297,0.107 -0.449,0.107 z"
           id="path7677-0-5-96-77-9-7" />
        <path
           style="fill:#000000;fill-opacity:0.99607843;stroke:#000400;stroke-opacity:0.99470903"
           inkscape:connector-curvature="0"
           d="m 149.924,111.092 h -9.844 c -1.912,0 -3.467,-1.555 -3.467,-3.467 0,-1.912 1.555,-3.468 3.467,-3.468 h 9.844 c 0.275,0 0.5,0.224 0.5,0.5 0,0.276 -0.225,0.5 -0.5,0.5 h -9.844 c -1.359,0 -2.467,1.106 -2.467,2.468 0,1.36 1.107,2.467 2.467,2.467 h 9.844 c 0.275,0 0.5,0.224 0.5,0.5 0,0.276 -0.225,0.5 -0.5,0.5 z"
           id="path7679-9-0-4-7-7-5" />
        <g
           style="fill:#000000;fill-opacity:0.99607843;stroke:#000400;stroke-opacity:0.99470903"
           id="g7681-3-3-3-69-9-3">
          <path
             style="fill:#000000;fill-opacity:0.99607843;stroke:#000400;stroke-opacity:0.99470903"
             inkscape:connector-curvature="0"
             d="m 74.182,109 c -0.371,0 -0.721,-0.15 -0.98,-0.41 -0.25,-0.25 -0.4,-0.609 -0.4,-0.97 0,-0.361 0.15,-0.71 0.4,-0.97 0.51,-0.51 1.439,-0.51 1.949,0 0.25,0.26 0.4,0.609 0.4,0.97 0,0.37 -0.15,0.72 -0.4,0.97 -0.251,0.26 -0.61,0.41 -0.969,0.41 z"
             id="path7683-6-6-3-1-8-5" />
          <path
             style="fill:#000000;fill-opacity:0.99607843;stroke:#000400;stroke-opacity:0.99470903"
             inkscape:connector-curvature="0"
             d="m 124.621,107.62 c 0,-0.761 0.619,-1.37 1.379,-1.37 v 0 c 0.762,0 1.371,0.609 1.371,1.37 v 0 c 0,0.76 -0.609,1.38 -1.371,1.38 v 0 c -0.76,0 -1.379,-0.62 -1.379,-1.38 z m -5.76,0 c 0,-0.761 0.619,-1.37 1.379,-1.37 v 0 c 0.76,0 1.371,0.609 1.371,1.37 v 0 c 0,0.76 -0.611,1.38 -1.371,1.38 v 0 c -0.76,0 -1.379,-0.62 -1.379,-1.38 z m -5.75,0 c 0,-0.761 0.609,-1.37 1.369,-1.37 v 0 c 0.76,0 1.381,0.609 1.381,1.37 v 0 c 0,0.76 -0.621,1.38 -1.381,1.38 v 0 c -0.759,0 -1.369,-0.62 -1.369,-1.38 z m -5.759,0 c 0,-0.761 0.609,-1.37 1.369,-1.37 v 0 c 0.76,0 1.381,0.609 1.381,1.37 v 0 c 0,0.76 -0.621,1.38 -1.381,1.38 v 0 c -0.76,0 -1.369,-0.62 -1.369,-1.38 z m -5.76,0 c 0,-0.761 0.619,-1.37 1.379,-1.37 v 0 c 0.76,0 1.371,0.609 1.371,1.37 v 0 c 0,0.76 -0.611,1.38 -1.371,1.38 v 0 c -0.76,0 -1.379,-0.62 -1.379,-1.38 z m -5.762,0 c 0,-0.761 0.621,-1.37 1.381,-1.37 v 0 c 0.76,0 1.369,0.609 1.369,1.37 v 0 c 0,0.76 -0.609,1.38 -1.369,1.38 v 0 c -0.76,0 -1.381,-0.62 -1.381,-1.38 z m -5.75,0 c 0,-0.761 0.611,-1.37 1.371,-1.37 v 0 c 0.76,0 1.379,0.609 1.379,1.37 v 0 c 0,0.76 -0.619,1.38 -1.379,1.38 v 0 c -0.76,0 -1.371,-0.62 -1.371,-1.38 z m -5.76,0 c 0,-0.761 0.611,-1.37 1.371,-1.37 v 0 c 0.76,0 1.379,0.609 1.379,1.37 v 0 c 0,0.76 -0.619,1.38 -1.379,1.38 v 0 c -0.759,0 -1.371,-0.62 -1.371,-1.38 z m -5.759,0 c 0,-0.761 0.621,-1.37 1.381,-1.37 v 0 c 0.75,0 1.369,0.609 1.369,1.37 v 0 c 0,0.76 -0.619,1.38 -1.369,1.38 v 0 c -0.76,0 -1.381,-0.62 -1.381,-1.38 z"
             id="path7685-0-1-3-1-8-6" />
          <path
             style="fill:#000000;fill-opacity:0.99607843;stroke:#000400;stroke-opacity:0.99470903"
             inkscape:connector-curvature="0"
             d="m 131.75,109 c -0.359,0 -0.709,-0.15 -0.969,-0.41 -0.25,-0.25 -0.4,-0.6 -0.4,-0.97 0,-0.36 0.15,-0.71 0.4,-0.97 0.52,-0.51 1.439,-0.51 1.949,0 0.25,0.26 0.4,0.609 0.4,0.97 0,0.37 -0.15,0.72 -0.4,0.979 -0.259,0.251 -0.609,0.401 -0.98,0.401 z"
             id="path7687-6-0-8-9-9-2" />
        </g>
        <g
           style="fill:#000000;fill-opacity:0.99607843;stroke:#000400;stroke-opacity:0.99470903"
           id="g7689-2-6-6-0-8-9">
          <path
             style="fill:#000000;fill-opacity:0.99607843;stroke:#000400;stroke-opacity:0.99470903"
             inkscape:connector-curvature="0"
             d="m 74.182,103.42 c -0.371,0 -0.721,-0.15 -0.98,-0.41 -0.25,-0.25 -0.4,-0.609 -0.4,-0.97 0,-0.361 0.15,-0.72 0.4,-0.97 0.52,-0.51 1.439,-0.51 1.949,0 0.25,0.25 0.4,0.61 0.4,0.97 0,0.36 -0.15,0.72 -0.4,0.97 -0.26,0.26 -0.61,0.41 -0.969,0.41 z"
             id="path7691-6-3-0-89-0-1" />
          <path
             style="fill:#000000;fill-opacity:0.99607843;stroke:#000400;stroke-opacity:0.99470903"
             inkscape:connector-curvature="0"
             d="m 124.621,102.04 c 0,-0.76 0.619,-1.37 1.379,-1.37 v 0 c 0.762,0 1.371,0.61 1.371,1.37 v 0 c 0,0.761 -0.609,1.38 -1.371,1.38 v 0 c -0.76,0 -1.379,-0.619 -1.379,-1.38 z m -5.76,0 c 0,-0.76 0.619,-1.37 1.379,-1.37 v 0 c 0.76,0 1.371,0.61 1.371,1.37 v 0 c 0,0.761 -0.611,1.38 -1.371,1.38 v 0 c -0.76,0 -1.379,-0.619 -1.379,-1.38 z m -5.75,0 c 0,-0.76 0.609,-1.37 1.369,-1.37 v 0 c 0.76,0 1.381,0.61 1.381,1.37 v 0 c 0,0.761 -0.621,1.38 -1.381,1.38 v 0 c -0.759,0 -1.369,-0.619 -1.369,-1.38 z m -5.759,0 c 0,-0.76 0.609,-1.37 1.369,-1.37 v 0 c 0.76,0 1.381,0.61 1.381,1.37 v 0 c 0,0.761 -0.621,1.38 -1.381,1.38 v 0 c -0.76,0 -1.369,-0.619 -1.369,-1.38 z m -5.76,0 c 0,-0.76 0.619,-1.37 1.379,-1.37 v 0 c 0.76,0 1.371,0.61 1.371,1.37 v 0 c 0,0.761 -0.611,1.38 -1.371,1.38 v 0 c -0.76,0 -1.379,-0.619 -1.379,-1.38 z m -5.762,0 c 0,-0.76 0.621,-1.37 1.381,-1.37 v 0 c 0.76,0 1.369,0.61 1.369,1.37 v 0 c 0,0.761 -0.609,1.38 -1.369,1.38 v 0 c -0.76,0 -1.381,-0.619 -1.381,-1.38 z m -5.75,0 c 0,-0.76 0.611,-1.37 1.371,-1.37 v 0 c 0.76,0 1.379,0.61 1.379,1.37 v 0 c 0,0.761 -0.619,1.38 -1.379,1.38 v 0 c -0.76,0 -1.371,-0.619 -1.371,-1.38 z m -5.76,0 c 0,-0.76 0.611,-1.37 1.371,-1.37 v 0 c 0.76,0 1.379,0.61 1.379,1.37 v 0 c 0,0.761 -0.619,1.38 -1.379,1.38 v 0 c -0.759,0 -1.371,-0.619 -1.371,-1.38 z m -5.759,0 c 0,-0.76 0.621,-1.37 1.381,-1.37 v 0 c 0.75,0 1.369,0.61 1.369,1.37 v 0 c 0,0.761 -0.619,1.38 -1.369,1.38 v 0 c -0.76,0 -1.381,-0.619 -1.381,-1.38 z"
             id="path7693-1-2-4-8-5-2" />
          <path
             style="fill:#000000;fill-opacity:0.99607843;stroke:#000400;stroke-opacity:0.99470903"
             inkscape:connector-curvature="0"
             d="m 131.75,103.42 c -0.35,0 -0.709,-0.15 -0.969,-0.41 -0.25,-0.25 -0.4,-0.609 -0.4,-0.97 0,-0.361 0.15,-0.71 0.4,-0.97 0.52,-0.52 1.439,-0.51 1.949,0 0.25,0.25 0.4,0.61 0.4,0.97 0,0.36 -0.15,0.72 -0.4,0.97 -0.259,0.26 -0.609,0.41 -0.98,0.41 z"
             id="path7695-8-0-8-8-2-7" />
        </g>
        <g
           style="fill:#000000;fill-opacity:0.99607843;stroke:#000400;stroke-opacity:0.99470903"
           id="g7697-7-6-8-0-0-0">
          <path
             style="fill:#000000;fill-opacity:0.99607843;stroke:#000400;stroke-opacity:0.99470903"
             inkscape:connector-curvature="0"
             d="m 74.182,114.58 c -0.371,0 -0.721,-0.15 -0.98,-0.4 -0.25,-0.26 -0.4,-0.609 -0.4,-0.97 0,-0.37 0.15,-0.72 0.4,-0.979 0.52,-0.51 1.439,-0.51 1.949,0 0.25,0.26 0.4,0.609 0.4,0.979 0,0.36 -0.15,0.71 -0.4,0.97 -0.26,0.25 -0.61,0.4 -0.969,0.4 z"
             id="path7699-9-1-8-3-2-9" />
          <path
             style="fill:#000000;fill-opacity:0.99607843;stroke:#000400;stroke-opacity:0.99470903"
             inkscape:connector-curvature="0"
             d="m 124.621,113.21 c 0,-0.76 0.619,-1.38 1.379,-1.38 v 0 c 0.762,0 1.371,0.62 1.371,1.38 v 0 c 0,0.761 -0.609,1.37 -1.371,1.37 v 0 c -0.76,0 -1.379,-0.609 -1.379,-1.37 z m -5.76,0 c 0,-0.76 0.619,-1.38 1.379,-1.38 v 0 c 0.76,0 1.371,0.62 1.371,1.38 v 0 c 0,0.761 -0.611,1.37 -1.371,1.37 v 0 c -0.76,0 -1.379,-0.609 -1.379,-1.37 z m -5.75,0 c 0,-0.76 0.609,-1.38 1.369,-1.38 v 0 c 0.76,0 1.381,0.62 1.381,1.38 v 0 c 0,0.761 -0.621,1.37 -1.381,1.37 v 0 c -0.759,0 -1.369,-0.609 -1.369,-1.37 z m -5.759,0 c 0,-0.76 0.609,-1.38 1.369,-1.38 v 0 c 0.76,0 1.381,0.62 1.381,1.38 v 0 c 0,0.761 -0.621,1.37 -1.381,1.37 v 0 c -0.76,0 -1.369,-0.609 -1.369,-1.37 z m -5.76,0 c 0,-0.76 0.619,-1.38 1.379,-1.38 v 0 c 0.76,0 1.371,0.62 1.371,1.38 v 0 c 0,0.761 -0.611,1.37 -1.371,1.37 v 0 c -0.76,0 -1.379,-0.609 -1.379,-1.37 z m -5.762,0 c 0,-0.76 0.621,-1.38 1.381,-1.38 v 0 c 0.76,0 1.369,0.62 1.369,1.38 v 0 c 0,0.761 -0.609,1.37 -1.369,1.37 v 0 c -0.76,0 -1.381,-0.609 -1.381,-1.37 z m -5.75,0 c 0,-0.76 0.611,-1.38 1.371,-1.38 v 0 c 0.76,0 1.379,0.62 1.379,1.38 v 0 c 0,0.761 -0.619,1.37 -1.379,1.37 v 0 c -0.76,0 -1.371,-0.609 -1.371,-1.37 z m -5.76,0 c 0,-0.76 0.611,-1.38 1.371,-1.38 v 0 c 0.76,0 1.379,0.62 1.379,1.38 v 0 c 0,0.761 -0.619,1.37 -1.379,1.37 v 0 c -0.759,0 -1.371,-0.609 -1.371,-1.37 z m -5.759,0 c 0,-0.76 0.621,-1.38 1.381,-1.38 v 0 c 0.75,0 1.369,0.62 1.369,1.38 v 0 c 0,0.761 -0.619,1.37 -1.369,1.37 v 0 c -0.76,0 -1.381,-0.609 -1.381,-1.37 z"
             id="path7701-2-5-9-7-4-3" />
          <path
             style="fill:#000000;fill-opacity:0.99607843;stroke:#000400;stroke-opacity:0.99470903"
             inkscape:connector-curvature="0"
             d="m 131.75,114.58 c -0.35,0 -0.709,-0.15 -0.969,-0.4 -0.25,-0.26 -0.4,-0.609 -0.4,-0.97 0,-0.37 0.15,-0.72 0.4,-0.979 0.52,-0.51 1.439,-0.51 1.949,0.01 0.25,0.25 0.4,0.6 0.4,0.97 0,0.36 -0.15,0.71 -0.4,0.97 -0.259,0.249 -0.609,0.399 -0.98,0.399 z"
             id="path7703-0-5-77-0-3-6" />
        </g>
      </g>
      <g
         style="opacity:1;fill:#000000;fill-opacity:0.99607843;stroke:#000400;stroke-opacity:0.99470903"
         transform="matrix(0.18900905,0,0,0.18900905,45.274875,122.83423)"
         id="g7673-2-8-1-3-7-0">
        <path
           style="fill:#000000;fill-opacity:0.99607843;stroke:#000400;stroke-opacity:0.99470903"
           inkscape:connector-curvature="0"
           d="M 149.924,120.314 H 68.266 c -0.553,0 -1,-0.447 -1,-1 v -23.38 c 0,-0.552 0.447,-1 1,-1 h 81.658 c 0.553,0 1,0.448 1,1 v 23.381 c 0,0.552 -0.447,0.999 -1,0.999 z m -80.658,-2 h 79.658 V 96.934 H 69.266 Z"
           id="path7675-7-4-8-0-7-62" />
        <path
           style="fill:#000000;fill-opacity:0.99607843;stroke:#000400;stroke-opacity:0.99470903"
           inkscape:connector-curvature="0"
           d="m 68.266,96.934 c -0.365,0 -0.719,-0.201 -0.893,-0.55 -0.25,-0.494 -0.051,-1.095 0.443,-1.343 l 13.846,-6.969 c 0.141,-0.07 0.293,-0.107 0.449,-0.107 h 53.967 c 0.156,0 0.311,0.037 0.449,0.107 l 13.846,6.969 c 0.494,0.248 0.691,0.849 0.443,1.343 -0.246,0.493 -0.848,0.693 -1.342,0.443 L 135.839,89.965 H 82.35 l -13.635,6.862 c -0.145,0.072 -0.297,0.107 -0.449,0.107 z"
           id="path7677-0-5-96-77-9-6" />
        <path
           style="fill:#000000;fill-opacity:0.99607843;stroke:#000400;stroke-opacity:0.99470903"
           inkscape:connector-curvature="0"
           d="m 149.924,111.092 h -9.844 c -1.912,0 -3.467,-1.555 -3.467,-3.467 0,-1.912 1.555,-3.468 3.467,-3.468 h 9.844 c 0.275,0 0.5,0.224 0.5,0.5 0,0.276 -0.225,0.5 -0.5,0.5 h -9.844 c -1.359,0 -2.467,1.106 -2.467,2.468 0,1.36 1.107,2.467 2.467,2.467 h 9.844 c 0.275,0 0.5,0.224 0.5,0.5 0,0.276 -0.225,0.5 -0.5,0.5 z"
           id="path7679-9-0-4-7-7-1" />
        <g
           style="fill:#000000;fill-opacity:0.99607843;stroke:#000400;stroke-opacity:0.99470903"
           id="g7681-3-3-3-69-9-8">
          <path
             style="fill:#000000;fill-opacity:0.99607843;stroke:#000400;stroke-opacity:0.99470903"
             inkscape:connector-curvature="0"
             d="m 74.182,109 c -0.371,0 -0.721,-0.15 -0.98,-0.41 -0.25,-0.25 -0.4,-0.609 -0.4,-0.97 0,-0.361 0.15,-0.71 0.4,-0.97 0.51,-0.51 1.439,-0.51 1.949,0 0.25,0.26 0.4,0.609 0.4,0.97 0,0.37 -0.15,0.72 -0.4,0.97 -0.251,0.26 -0.61,0.41 -0.969,0.41 z"
             id="path7683-6-6-3-1-8-7" />
          <path
             style="fill:#000000;fill-opacity:0.99607843;stroke:#000400;stroke-opacity:0.99470903"
             inkscape:connector-curvature="0"
             d="m 124.621,107.62 c 0,-0.761 0.619,-1.37 1.379,-1.37 v 0 c 0.762,0 1.371,0.609 1.371,1.37 v 0 c 0,0.76 -0.609,1.38 -1.371,1.38 v 0 c -0.76,0 -1.379,-0.62 -1.379,-1.38 z m -5.76,0 c 0,-0.761 0.619,-1.37 1.379,-1.37 v 0 c 0.76,0 1.371,0.609 1.371,1.37 v 0 c 0,0.76 -0.611,1.38 -1.371,1.38 v 0 c -0.76,0 -1.379,-0.62 -1.379,-1.38 z m -5.75,0 c 0,-0.761 0.609,-1.37 1.369,-1.37 v 0 c 0.76,0 1.381,0.609 1.381,1.37 v 0 c 0,0.76 -0.621,1.38 -1.381,1.38 v 0 c -0.759,0 -1.369,-0.62 -1.369,-1.38 z m -5.759,0 c 0,-0.761 0.609,-1.37 1.369,-1.37 v 0 c 0.76,0 1.381,0.609 1.381,1.37 v 0 c 0,0.76 -0.621,1.38 -1.381,1.38 v 0 c -0.76,0 -1.369,-0.62 -1.369,-1.38 z m -5.76,0 c 0,-0.761 0.619,-1.37 1.379,-1.37 v 0 c 0.76,0 1.371,0.609 1.371,1.37 v 0 c 0,0.76 -0.611,1.38 -1.371,1.38 v 0 c -0.76,0 -1.379,-0.62 -1.379,-1.38 z m -5.762,0 c 0,-0.761 0.621,-1.37 1.381,-1.37 v 0 c 0.76,0 1.369,0.609 1.369,1.37 v 0 c 0,0.76 -0.609,1.38 -1.369,1.38 v 0 c -0.76,0 -1.381,-0.62 -1.381,-1.38 z m -5.75,0 c 0,-0.761 0.611,-1.37 1.371,-1.37 v 0 c 0.76,0 1.379,0.609 1.379,1.37 v 0 c 0,0.76 -0.619,1.38 -1.379,1.38 v 0 c -0.76,0 -1.371,-0.62 -1.371,-1.38 z m -5.76,0 c 0,-0.761 0.611,-1.37 1.371,-1.37 v 0 c 0.76,0 1.379,0.609 1.379,1.37 v 0 c 0,0.76 -0.619,1.38 -1.379,1.38 v 0 c -0.759,0 -1.371,-0.62 -1.371,-1.38 z m -5.759,0 c 0,-0.761 0.621,-1.37 1.381,-1.37 v 0 c 0.75,0 1.369,0.609 1.369,1.37 v 0 c 0,0.76 -0.619,1.38 -1.369,1.38 v 0 c -0.76,0 -1.381,-0.62 -1.381,-1.38 z"
             id="path7685-0-1-3-1-8-9" />
          <path
             style="fill:#000000;fill-opacity:0.99607843;stroke:#000400;stroke-opacity:0.99470903"
             inkscape:connector-curvature="0"
             d="m 131.75,109 c -0.359,0 -0.709,-0.15 -0.969,-0.41 -0.25,-0.25 -0.4,-0.6 -0.4,-0.97 0,-0.36 0.15,-0.71 0.4,-0.97 0.52,-0.51 1.439,-0.51 1.949,0 0.25,0.26 0.4,0.609 0.4,0.97 0,0.37 -0.15,0.72 -0.4,0.979 -0.259,0.251 -0.609,0.401 -0.98,0.401 z"
             id="path7687-6-0-8-9-9-20" />
        </g>
        <g
           style="fill:#000000;fill-opacity:0.99607843;stroke:#000400;stroke-opacity:0.99470903"
           id="g7689-2-6-6-0-8-2">
          <path
             style="fill:#000000;fill-opacity:0.99607843;stroke:#000400;stroke-opacity:0.99470903"
             inkscape:connector-curvature="0"
             d="m 74.182,103.42 c -0.371,0 -0.721,-0.15 -0.98,-0.41 -0.25,-0.25 -0.4,-0.609 -0.4,-0.97 0,-0.361 0.15,-0.72 0.4,-0.97 0.52,-0.51 1.439,-0.51 1.949,0 0.25,0.25 0.4,0.61 0.4,0.97 0,0.36 -0.15,0.72 -0.4,0.97 -0.26,0.26 -0.61,0.41 -0.969,0.41 z"
             id="path7691-6-3-0-89-0-3" />
          <path
             style="fill:#000000;fill-opacity:0.99607843;stroke:#000400;stroke-opacity:0.99470903"
             inkscape:connector-curvature="0"
             d="m 124.621,102.04 c 0,-0.76 0.619,-1.37 1.379,-1.37 v 0 c 0.762,0 1.371,0.61 1.371,1.37 v 0 c 0,0.761 -0.609,1.38 -1.371,1.38 v 0 c -0.76,0 -1.379,-0.619 -1.379,-1.38 z m -5.76,0 c 0,-0.76 0.619,-1.37 1.379,-1.37 v 0 c 0.76,0 1.371,0.61 1.371,1.37 v 0 c 0,0.761 -0.611,1.38 -1.371,1.38 v 0 c -0.76,0 -1.379,-0.619 -1.379,-1.38 z m -5.75,0 c 0,-0.76 0.609,-1.37 1.369,-1.37 v 0 c 0.76,0 1.381,0.61 1.381,1.37 v 0 c 0,0.761 -0.621,1.38 -1.381,1.38 v 0 c -0.759,0 -1.369,-0.619 -1.369,-1.38 z m -5.759,0 c 0,-0.76 0.609,-1.37 1.369,-1.37 v 0 c 0.76,0 1.381,0.61 1.381,1.37 v 0 c 0,0.761 -0.621,1.38 -1.381,1.38 v 0 c -0.76,0 -1.369,-0.619 -1.369,-1.38 z m -5.76,0 c 0,-0.76 0.619,-1.37 1.379,-1.37 v 0 c 0.76,0 1.371,0.61 1.371,1.37 v 0 c 0,0.761 -0.611,1.38 -1.371,1.38 v 0 c -0.76,0 -1.379,-0.619 -1.379,-1.38 z m -5.762,0 c 0,-0.76 0.621,-1.37 1.381,-1.37 v 0 c 0.76,0 1.369,0.61 1.369,1.37 v 0 c 0,0.761 -0.609,1.38 -1.369,1.38 v 0 c -0.76,0 -1.381,-0.619 -1.381,-1.38 z m -5.75,0 c 0,-0.76 0.611,-1.37 1.371,-1.37 v 0 c 0.76,0 1.379,0.61 1.379,1.37 v 0 c 0,0.761 -0.619,1.38 -1.379,1.38 v 0 c -0.76,0 -1.371,-0.619 -1.371,-1.38 z m -5.76,0 c 0,-0.76 0.611,-1.37 1.371,-1.37 v 0 c 0.76,0 1.379,0.61 1.379,1.37 v 0 c 0,0.761 -0.619,1.38 -1.379,1.38 v 0 c -0.759,0 -1.371,-0.619 -1.371,-1.38 z m -5.759,0 c 0,-0.76 0.621,-1.37 1.381,-1.37 v 0 c 0.75,0 1.369,0.61 1.369,1.37 v 0 c 0,0.761 -0.619,1.38 -1.369,1.38 v 0 c -0.76,0 -1.381,-0.619 -1.381,-1.38 z"
             id="path7693-1-2-4-8-5-7" />
          <path
             style="fill:#000000;fill-opacity:0.99607843;stroke:#000400;stroke-opacity:0.99470903"
             inkscape:connector-curvature="0"
             d="m 131.75,103.42 c -0.35,0 -0.709,-0.15 -0.969,-0.41 -0.25,-0.25 -0.4,-0.609 -0.4,-0.97 0,-0.361 0.15,-0.71 0.4,-0.97 0.52,-0.52 1.439,-0.51 1.949,0 0.25,0.25 0.4,0.61 0.4,0.97 0,0.36 -0.15,0.72 -0.4,0.97 -0.259,0.26 -0.609,0.41 -0.98,0.41 z"
             id="path7695-8-0-8-8-2-5" />
        </g>
        <g
           style="fill:#000000;fill-opacity:0.99607843;stroke:#000400;stroke-opacity:0.99470903"
           id="g7697-7-6-8-0-0-9">
          <path
             style="fill:#000000;fill-opacity:0.99607843;stroke:#000400;stroke-opacity:0.99470903"
             inkscape:connector-curvature="0"
             d="m 74.182,114.58 c -0.371,0 -0.721,-0.15 -0.98,-0.4 -0.25,-0.26 -0.4,-0.609 -0.4,-0.97 0,-0.37 0.15,-0.72 0.4,-0.979 0.52,-0.51 1.439,-0.51 1.949,0 0.25,0.26 0.4,0.609 0.4,0.979 0,0.36 -0.15,0.71 -0.4,0.97 -0.26,0.25 -0.61,0.4 -0.969,0.4 z"
             id="path7699-9-1-8-3-2-2" />
          <path
             style="fill:#000000;fill-opacity:0.99607843;stroke:#000400;stroke-opacity:0.99470903"
             inkscape:connector-curvature="0"
             d="m 124.621,113.21 c 0,-0.76 0.619,-1.38 1.379,-1.38 v 0 c 0.762,0 1.371,0.62 1.371,1.38 v 0 c 0,0.761 -0.609,1.37 -1.371,1.37 v 0 c -0.76,0 -1.379,-0.609 -1.379,-1.37 z m -5.76,0 c 0,-0.76 0.619,-1.38 1.379,-1.38 v 0 c 0.76,0 1.371,0.62 1.371,1.38 v 0 c 0,0.761 -0.611,1.37 -1.371,1.37 v 0 c -0.76,0 -1.379,-0.609 -1.379,-1.37 z m -5.75,0 c 0,-0.76 0.609,-1.38 1.369,-1.38 v 0 c 0.76,0 1.381,0.62 1.381,1.38 v 0 c 0,0.761 -0.621,1.37 -1.381,1.37 v 0 c -0.759,0 -1.369,-0.609 -1.369,-1.37 z m -5.759,0 c 0,-0.76 0.609,-1.38 1.369,-1.38 v 0 c 0.76,0 1.381,0.62 1.381,1.38 v 0 c 0,0.761 -0.621,1.37 -1.381,1.37 v 0 c -0.76,0 -1.369,-0.609 -1.369,-1.37 z m -5.76,0 c 0,-0.76 0.619,-1.38 1.379,-1.38 v 0 c 0.76,0 1.371,0.62 1.371,1.38 v 0 c 0,0.761 -0.611,1.37 -1.371,1.37 v 0 c -0.76,0 -1.379,-0.609 -1.379,-1.37 z m -5.762,0 c 0,-0.76 0.621,-1.38 1.381,-1.38 v 0 c 0.76,0 1.369,0.62 1.369,1.38 v 0 c 0,0.761 -0.609,1.37 -1.369,1.37 v 0 c -0.76,0 -1.381,-0.609 -1.381,-1.37 z m -5.75,0 c 0,-0.76 0.611,-1.38 1.371,-1.38 v 0 c 0.76,0 1.379,0.62 1.379,1.38 v 0 c 0,0.761 -0.619,1.37 -1.379,1.37 v 0 c -0.76,0 -1.371,-0.609 -1.371,-1.37 z m -5.76,0 c 0,-0.76 0.611,-1.38 1.371,-1.38 v 0 c 0.76,0 1.379,0.62 1.379,1.38 v 0 c 0,0.761 -0.619,1.37 -1.379,1.37 v 0 c -0.759,0 -1.371,-0.609 -1.371,-1.37 z m -5.759,0 c 0,-0.76 0.621,-1.38 1.381,-1.38 v 0 c 0.75,0 1.369,0.62 1.369,1.38 v 0 c 0,0.761 -0.619,1.37 -1.369,1.37 v 0 c -0.76,0 -1.381,-0.609 -1.381,-1.37 z"
             id="path7701-2-5-9-7-4-2" />
          <path
             style="fill:#000000;fill-opacity:0.99607843;stroke:#000400;stroke-opacity:0.99470903"
             inkscape:connector-curvature="0"
             d="m 131.75,114.58 c -0.35,0 -0.709,-0.15 -0.969,-0.4 -0.25,-0.26 -0.4,-0.609 -0.4,-0.97 0,-0.37 0.15,-0.72 0.4,-0.979 0.52,-0.51 1.439,-0.51 1.949,0.01 0.25,0.25 0.4,0.6 0.4,0.97 0,0.36 -0.15,0.71 -0.4,0.97 -0.259,0.249 -0.609,0.399 -0.98,0.399 z"
             id="path7703-0-5-77-0-3-8" />
        </g>
      </g>
    </g>
    <text
       xml:space="preserve"
       style="font-style:normal;font-weight:normal;font-size:3.17499995px;line-height:0%;font-family:sans-serif;letter-spacing:0px;word-spacing:0px;opacity:1;fill:#323232;fill-opacity:1;stroke:none;stroke-width:0.26458332"
       x="61.475986"
       y="152.89934"
       id="text12016-5-6-71-0-4-9-3-9"
       inkscape:export-xdpi="180.07326"
       inkscape:export-ydpi="180.07326"><tspan
         sodipodi:role="line"
         x="61.475986"
         y="152.89934"
         style="font-size:2.64583325px;line-height:1.25;fill:#323232;fill-opacity:1;stroke-width:0.26458332"
         id="tspan17828-7-4-29-7">Bicycle Clients</tspan></text>
    <g
       id="g7721"
       transform="translate(-1.8657125,6.1458765)">
      <g
         style="opacity:1;fill:#000000;fill-opacity:0.99607843;stroke:#000400;stroke-opacity:0.99470903"
         transform="matrix(0.18900905,0,0,0.18900905,6.78271,95.774117)"
         id="g7673-2-8-1-3-7-3-6">
        <path
           style="fill:#000000;fill-opacity:0.99607843;stroke:#000400;stroke-opacity:0.99470903"
           inkscape:connector-curvature="0"
           d="M 149.924,120.314 H 68.266 c -0.553,0 -1,-0.447 -1,-1 v -23.38 c 0,-0.552 0.447,-1 1,-1 h 81.658 c 0.553,0 1,0.448 1,1 v 23.381 c 0,0.552 -0.447,0.999 -1,0.999 z m -80.658,-2 h 79.658 V 96.934 H 69.266 Z"
           id="path7675-7-4-8-0-7-6-1" />
        <path
           style="fill:#000000;fill-opacity:0.99607843;stroke:#000400;stroke-opacity:0.99470903"
           inkscape:connector-curvature="0"
           d="m 68.266,96.934 c -0.365,0 -0.719,-0.201 -0.893,-0.55 -0.25,-0.494 -0.051,-1.095 0.443,-1.343 l 13.846,-6.969 c 0.141,-0.07 0.293,-0.107 0.449,-0.107 h 53.967 c 0.156,0 0.311,0.037 0.449,0.107 l 13.846,6.969 c 0.494,0.248 0.691,0.849 0.443,1.343 -0.246,0.493 -0.848,0.693 -1.342,0.443 L 135.839,89.965 H 82.35 l -13.635,6.862 c -0.145,0.072 -0.297,0.107 -0.449,0.107 z"
           id="path7677-0-5-96-77-9-7-2" />
        <path
           style="fill:#000000;fill-opacity:0.99607843;stroke:#000400;stroke-opacity:0.99470903"
           inkscape:connector-curvature="0"
           d="m 149.924,111.092 h -9.844 c -1.912,0 -3.467,-1.555 -3.467,-3.467 0,-1.912 1.555,-3.468 3.467,-3.468 h 9.844 c 0.275,0 0.5,0.224 0.5,0.5 0,0.276 -0.225,0.5 -0.5,0.5 h -9.844 c -1.359,0 -2.467,1.106 -2.467,2.468 0,1.36 1.107,2.467 2.467,2.467 h 9.844 c 0.275,0 0.5,0.224 0.5,0.5 0,0.276 -0.225,0.5 -0.5,0.5 z"
           id="path7679-9-0-4-7-7-5-9" />
        <g
           style="fill:#000000;fill-opacity:0.99607843;stroke:#000400;stroke-opacity:0.99470903"
           id="g7681-3-3-3-69-9-3-3">
          <path
             style="fill:#000000;fill-opacity:0.99607843;stroke:#000400;stroke-opacity:0.99470903"
             inkscape:connector-curvature="0"
             d="m 74.182,109 c -0.371,0 -0.721,-0.15 -0.98,-0.41 -0.25,-0.25 -0.4,-0.609 -0.4,-0.97 0,-0.361 0.15,-0.71 0.4,-0.97 0.51,-0.51 1.439,-0.51 1.949,0 0.25,0.26 0.4,0.609 0.4,0.97 0,0.37 -0.15,0.72 -0.4,0.97 -0.251,0.26 -0.61,0.41 -0.969,0.41 z"
             id="path7683-6-6-3-1-8-5-1" />
          <path
             style="fill:#000000;fill-opacity:0.99607843;stroke:#000400;stroke-opacity:0.99470903"
             inkscape:connector-curvature="0"
             d="m 124.621,107.62 c 0,-0.761 0.619,-1.37 1.379,-1.37 v 0 c 0.762,0 1.371,0.609 1.371,1.37 v 0 c 0,0.76 -0.609,1.38 -1.371,1.38 v 0 c -0.76,0 -1.379,-0.62 -1.379,-1.38 z m -5.76,0 c 0,-0.761 0.619,-1.37 1.379,-1.37 v 0 c 0.76,0 1.371,0.609 1.371,1.37 v 0 c 0,0.76 -0.611,1.38 -1.371,1.38 v 0 c -0.76,0 -1.379,-0.62 -1.379,-1.38 z m -5.75,0 c 0,-0.761 0.609,-1.37 1.369,-1.37 v 0 c 0.76,0 1.381,0.609 1.381,1.37 v 0 c 0,0.76 -0.621,1.38 -1.381,1.38 v 0 c -0.759,0 -1.369,-0.62 -1.369,-1.38 z m -5.759,0 c 0,-0.761 0.609,-1.37 1.369,-1.37 v 0 c 0.76,0 1.381,0.609 1.381,1.37 v 0 c 0,0.76 -0.621,1.38 -1.381,1.38 v 0 c -0.76,0 -1.369,-0.62 -1.369,-1.38 z m -5.76,0 c 0,-0.761 0.619,-1.37 1.379,-1.37 v 0 c 0.76,0 1.371,0.609 1.371,1.37 v 0 c 0,0.76 -0.611,1.38 -1.371,1.38 v 0 c -0.76,0 -1.379,-0.62 -1.379,-1.38 z m -5.762,0 c 0,-0.761 0.621,-1.37 1.381,-1.37 v 0 c 0.76,0 1.369,0.609 1.369,1.37 v 0 c 0,0.76 -0.609,1.38 -1.369,1.38 v 0 c -0.76,0 -1.381,-0.62 -1.381,-1.38 z m -5.75,0 c 0,-0.761 0.611,-1.37 1.371,-1.37 v 0 c 0.76,0 1.379,0.609 1.379,1.37 v 0 c 0,0.76 -0.619,1.38 -1.379,1.38 v 0 c -0.76,0 -1.371,-0.62 -1.371,-1.38 z m -5.76,0 c 0,-0.761 0.611,-1.37 1.371,-1.37 v 0 c 0.76,0 1.379,0.609 1.379,1.37 v 0 c 0,0.76 -0.619,1.38 -1.379,1.38 v 0 c -0.759,0 -1.371,-0.62 -1.371,-1.38 z m -5.759,0 c 0,-0.761 0.621,-1.37 1.381,-1.37 v 0 c 0.75,0 1.369,0.609 1.369,1.37 v 0 c 0,0.76 -0.619,1.38 -1.369,1.38 v 0 c -0.76,0 -1.381,-0.62 -1.381,-1.38 z"
             id="path7685-0-1-3-1-8-6-9" />
          <path
             style="fill:#000000;fill-opacity:0.99607843;stroke:#000400;stroke-opacity:0.99470903"
             inkscape:connector-curvature="0"
             d="m 131.75,109 c -0.359,0 -0.709,-0.15 -0.969,-0.41 -0.25,-0.25 -0.4,-0.6 -0.4,-0.97 0,-0.36 0.15,-0.71 0.4,-0.97 0.52,-0.51 1.439,-0.51 1.949,0 0.25,0.26 0.4,0.609 0.4,0.97 0,0.37 -0.15,0.72 -0.4,0.979 -0.259,0.251 -0.609,0.401 -0.98,0.401 z"
             id="path7687-6-0-8-9-9-2-4" />
        </g>
        <g
           style="fill:#000000;fill-opacity:0.99607843;stroke:#000400;stroke-opacity:0.99470903"
           id="g7689-2-6-6-0-8-9-7">
          <path
             style="fill:#000000;fill-opacity:0.99607843;stroke:#000400;stroke-opacity:0.99470903"
             inkscape:connector-curvature="0"
             d="m 74.182,103.42 c -0.371,0 -0.721,-0.15 -0.98,-0.41 -0.25,-0.25 -0.4,-0.609 -0.4,-0.97 0,-0.361 0.15,-0.72 0.4,-0.97 0.52,-0.51 1.439,-0.51 1.949,0 0.25,0.25 0.4,0.61 0.4,0.97 0,0.36 -0.15,0.72 -0.4,0.97 -0.26,0.26 -0.61,0.41 -0.969,0.41 z"
             id="path7691-6-3-0-89-0-1-8" />
          <path
             style="fill:#000000;fill-opacity:0.99607843;stroke:#000400;stroke-opacity:0.99470903"
             inkscape:connector-curvature="0"
             d="m 124.621,102.04 c 0,-0.76 0.619,-1.37 1.379,-1.37 v 0 c 0.762,0 1.371,0.61 1.371,1.37 v 0 c 0,0.761 -0.609,1.38 -1.371,1.38 v 0 c -0.76,0 -1.379,-0.619 -1.379,-1.38 z m -5.76,0 c 0,-0.76 0.619,-1.37 1.379,-1.37 v 0 c 0.76,0 1.371,0.61 1.371,1.37 v 0 c 0,0.761 -0.611,1.38 -1.371,1.38 v 0 c -0.76,0 -1.379,-0.619 -1.379,-1.38 z m -5.75,0 c 0,-0.76 0.609,-1.37 1.369,-1.37 v 0 c 0.76,0 1.381,0.61 1.381,1.37 v 0 c 0,0.761 -0.621,1.38 -1.381,1.38 v 0 c -0.759,0 -1.369,-0.619 -1.369,-1.38 z m -5.759,0 c 0,-0.76 0.609,-1.37 1.369,-1.37 v 0 c 0.76,0 1.381,0.61 1.381,1.37 v 0 c 0,0.761 -0.621,1.38 -1.381,1.38 v 0 c -0.76,0 -1.369,-0.619 -1.369,-1.38 z m -5.76,0 c 0,-0.76 0.619,-1.37 1.379,-1.37 v 0 c 0.76,0 1.371,0.61 1.371,1.37 v 0 c 0,0.761 -0.611,1.38 -1.371,1.38 v 0 c -0.76,0 -1.379,-0.619 -1.379,-1.38 z m -5.762,0 c 0,-0.76 0.621,-1.37 1.381,-1.37 v 0 c 0.76,0 1.369,0.61 1.369,1.37 v 0 c 0,0.761 -0.609,1.38 -1.369,1.38 v 0 c -0.76,0 -1.381,-0.619 -1.381,-1.38 z m -5.75,0 c 0,-0.76 0.611,-1.37 1.371,-1.37 v 0 c 0.76,0 1.379,0.61 1.379,1.37 v 0 c 0,0.761 -0.619,1.38 -1.379,1.38 v 0 c -0.76,0 -1.371,-0.619 -1.371,-1.38 z m -5.76,0 c 0,-0.76 0.611,-1.37 1.371,-1.37 v 0 c 0.76,0 1.379,0.61 1.379,1.37 v 0 c 0,0.761 -0.619,1.38 -1.379,1.38 v 0 c -0.759,0 -1.371,-0.619 -1.371,-1.38 z m -5.759,0 c 0,-0.76 0.621,-1.37 1.381,-1.37 v 0 c 0.75,0 1.369,0.61 1.369,1.37 v 0 c 0,0.761 -0.619,1.38 -1.369,1.38 v 0 c -0.76,0 -1.381,-0.619 -1.381,-1.38 z"
             id="path7693-1-2-4-8-5-2-4" />
          <path
             style="fill:#000000;fill-opacity:0.99607843;stroke:#000400;stroke-opacity:0.99470903"
             inkscape:connector-curvature="0"
             d="m 131.75,103.42 c -0.35,0 -0.709,-0.15 -0.969,-0.41 -0.25,-0.25 -0.4,-0.609 -0.4,-0.97 0,-0.361 0.15,-0.71 0.4,-0.97 0.52,-0.52 1.439,-0.51 1.949,0 0.25,0.25 0.4,0.61 0.4,0.97 0,0.36 -0.15,0.72 -0.4,0.97 -0.259,0.26 -0.609,0.41 -0.98,0.41 z"
             id="path7695-8-0-8-8-2-7-5" />
        </g>
        <g
           style="fill:#000000;fill-opacity:0.99607843;stroke:#000400;stroke-opacity:0.99470903"
           id="g7697-7-6-8-0-0-0-0">
          <path
             style="fill:#000000;fill-opacity:0.99607843;stroke:#000400;stroke-opacity:0.99470903"
             inkscape:connector-curvature="0"
             d="m 74.182,114.58 c -0.371,0 -0.721,-0.15 -0.98,-0.4 -0.25,-0.26 -0.4,-0.609 -0.4,-0.97 0,-0.37 0.15,-0.72 0.4,-0.979 0.52,-0.51 1.439,-0.51 1.949,0 0.25,0.26 0.4,0.609 0.4,0.979 0,0.36 -0.15,0.71 -0.4,0.97 -0.26,0.25 -0.61,0.4 -0.969,0.4 z"
             id="path7699-9-1-8-3-2-9-3" />
          <path
             style="fill:#000000;fill-opacity:0.99607843;stroke:#000400;stroke-opacity:0.99470903"
             inkscape:connector-curvature="0"
             d="m 124.621,113.21 c 0,-0.76 0.619,-1.38 1.379,-1.38 v 0 c 0.762,0 1.371,0.62 1.371,1.38 v 0 c 0,0.761 -0.609,1.37 -1.371,1.37 v 0 c -0.76,0 -1.379,-0.609 -1.379,-1.37 z m -5.76,0 c 0,-0.76 0.619,-1.38 1.379,-1.38 v 0 c 0.76,0 1.371,0.62 1.371,1.38 v 0 c 0,0.761 -0.611,1.37 -1.371,1.37 v 0 c -0.76,0 -1.379,-0.609 -1.379,-1.37 z m -5.75,0 c 0,-0.76 0.609,-1.38 1.369,-1.38 v 0 c 0.76,0 1.381,0.62 1.381,1.38 v 0 c 0,0.761 -0.621,1.37 -1.381,1.37 v 0 c -0.759,0 -1.369,-0.609 -1.369,-1.37 z m -5.759,0 c 0,-0.76 0.609,-1.38 1.369,-1.38 v 0 c 0.76,0 1.381,0.62 1.381,1.38 v 0 c 0,0.761 -0.621,1.37 -1.381,1.37 v 0 c -0.76,0 -1.369,-0.609 -1.369,-1.37 z m -5.76,0 c 0,-0.76 0.619,-1.38 1.379,-1.38 v 0 c 0.76,0 1.371,0.62 1.371,1.38 v 0 c 0,0.761 -0.611,1.37 -1.371,1.37 v 0 c -0.76,0 -1.379,-0.609 -1.379,-1.37 z m -5.762,0 c 0,-0.76 0.621,-1.38 1.381,-1.38 v 0 c 0.76,0 1.369,0.62 1.369,1.38 v 0 c 0,0.761 -0.609,1.37 -1.369,1.37 v 0 c -0.76,0 -1.381,-0.609 -1.381,-1.37 z m -5.75,0 c 0,-0.76 0.611,-1.38 1.371,-1.38 v 0 c 0.76,0 1.379,0.62 1.379,1.38 v 0 c 0,0.761 -0.619,1.37 -1.379,1.37 v 0 c -0.76,0 -1.371,-0.609 -1.371,-1.37 z m -5.76,0 c 0,-0.76 0.611,-1.38 1.371,-1.38 v 0 c 0.76,0 1.379,0.62 1.379,1.38 v 0 c 0,0.761 -0.619,1.37 -1.379,1.37 v 0 c -0.759,0 -1.371,-0.609 -1.371,-1.37 z m -5.759,0 c 0,-0.76 0.621,-1.38 1.381,-1.38 v 0 c 0.75,0 1.369,0.62 1.369,1.38 v 0 c 0,0.761 -0.619,1.37 -1.369,1.37 v 0 c -0.76,0 -1.381,-0.609 -1.381,-1.37 z"
             id="path7701-2-5-9-7-4-3-6" />
          <path
             style="fill:#000000;fill-opacity:0.99607843;stroke:#000400;stroke-opacity:0.99470903"
             inkscape:connector-curvature="0"
             d="m 131.75,114.58 c -0.35,0 -0.709,-0.15 -0.969,-0.4 -0.25,-0.26 -0.4,-0.609 -0.4,-0.97 0,-0.37 0.15,-0.72 0.4,-0.979 0.52,-0.51 1.439,-0.51 1.949,0.01 0.25,0.25 0.4,0.6 0.4,0.97 0,0.36 -0.15,0.71 -0.4,0.97 -0.259,0.249 -0.609,0.399 -0.98,0.399 z"
             id="path7703-0-5-77-0-3-6-1" />
        </g>
      </g>
      <g
         style="opacity:1;fill:#000000;fill-opacity:0.99607843;stroke:#000400;stroke-opacity:0.99470903"
         transform="matrix(0.18900905,0,0,0.18900905,24.63725,95.774117)"
         id="g7673-2-8-1-3-7-0-0">
        <path
           style="fill:#000000;fill-opacity:0.99607843;stroke:#000400;stroke-opacity:0.99470903"
           inkscape:connector-curvature="0"
           d="M 149.924,120.314 H 68.266 c -0.553,0 -1,-0.447 -1,-1 v -23.38 c 0,-0.552 0.447,-1 1,-1 h 81.658 c 0.553,0 1,0.448 1,1 v 23.381 c 0,0.552 -0.447,0.999 -1,0.999 z m -80.658,-2 h 79.658 V 96.934 H 69.266 Z"
           id="path7675-7-4-8-0-7-62-6" />
        <path
           style="fill:#000000;fill-opacity:0.99607843;stroke:#000400;stroke-opacity:0.99470903"
           inkscape:connector-curvature="0"
           d="m 68.266,96.934 c -0.365,0 -0.719,-0.201 -0.893,-0.55 -0.25,-0.494 -0.051,-1.095 0.443,-1.343 l 13.846,-6.969 c 0.141,-0.07 0.293,-0.107 0.449,-0.107 h 53.967 c 0.156,0 0.311,0.037 0.449,0.107 l 13.846,6.969 c 0.494,0.248 0.691,0.849 0.443,1.343 -0.246,0.493 -0.848,0.693 -1.342,0.443 L 135.839,89.965 H 82.35 l -13.635,6.862 c -0.145,0.072 -0.297,0.107 -0.449,0.107 z"
           id="path7677-0-5-96-77-9-6-3" />
        <path
           style="fill:#000000;fill-opacity:0.99607843;stroke:#000400;stroke-opacity:0.99470903"
           inkscape:connector-curvature="0"
           d="m 149.924,111.092 h -9.844 c -1.912,0 -3.467,-1.555 -3.467,-3.467 0,-1.912 1.555,-3.468 3.467,-3.468 h 9.844 c 0.275,0 0.5,0.224 0.5,0.5 0,0.276 -0.225,0.5 -0.5,0.5 h -9.844 c -1.359,0 -2.467,1.106 -2.467,2.468 0,1.36 1.107,2.467 2.467,2.467 h 9.844 c 0.275,0 0.5,0.224 0.5,0.5 0,0.276 -0.225,0.5 -0.5,0.5 z"
           id="path7679-9-0-4-7-7-1-2" />
        <g
           style="fill:#000000;fill-opacity:0.99607843;stroke:#000400;stroke-opacity:0.99470903"
           id="g7681-3-3-3-69-9-8-0">
          <path
             style="fill:#000000;fill-opacity:0.99607843;stroke:#000400;stroke-opacity:0.99470903"
             inkscape:connector-curvature="0"
             d="m 74.182,109 c -0.371,0 -0.721,-0.15 -0.98,-0.41 -0.25,-0.25 -0.4,-0.609 -0.4,-0.97 0,-0.361 0.15,-0.71 0.4,-0.97 0.51,-0.51 1.439,-0.51 1.949,0 0.25,0.26 0.4,0.609 0.4,0.97 0,0.37 -0.15,0.72 -0.4,0.97 -0.251,0.26 -0.61,0.41 -0.969,0.41 z"
             id="path7683-6-6-3-1-8-7-6" />
          <path
             style="fill:#000000;fill-opacity:0.99607843;stroke:#000400;stroke-opacity:0.99470903"
             inkscape:connector-curvature="0"
             d="m 124.621,107.62 c 0,-0.761 0.619,-1.37 1.379,-1.37 v 0 c 0.762,0 1.371,0.609 1.371,1.37 v 0 c 0,0.76 -0.609,1.38 -1.371,1.38 v 0 c -0.76,0 -1.379,-0.62 -1.379,-1.38 z m -5.76,0 c 0,-0.761 0.619,-1.37 1.379,-1.37 v 0 c 0.76,0 1.371,0.609 1.371,1.37 v 0 c 0,0.76 -0.611,1.38 -1.371,1.38 v 0 c -0.76,0 -1.379,-0.62 -1.379,-1.38 z m -5.75,0 c 0,-0.761 0.609,-1.37 1.369,-1.37 v 0 c 0.76,0 1.381,0.609 1.381,1.37 v 0 c 0,0.76 -0.621,1.38 -1.381,1.38 v 0 c -0.759,0 -1.369,-0.62 -1.369,-1.38 z m -5.759,0 c 0,-0.761 0.609,-1.37 1.369,-1.37 v 0 c 0.76,0 1.381,0.609 1.381,1.37 v 0 c 0,0.76 -0.621,1.38 -1.381,1.38 v 0 c -0.76,0 -1.369,-0.62 -1.369,-1.38 z m -5.76,0 c 0,-0.761 0.619,-1.37 1.379,-1.37 v 0 c 0.76,0 1.371,0.609 1.371,1.37 v 0 c 0,0.76 -0.611,1.38 -1.371,1.38 v 0 c -0.76,0 -1.379,-0.62 -1.379,-1.38 z m -5.762,0 c 0,-0.761 0.621,-1.37 1.381,-1.37 v 0 c 0.76,0 1.369,0.609 1.369,1.37 v 0 c 0,0.76 -0.609,1.38 -1.369,1.38 v 0 c -0.76,0 -1.381,-0.62 -1.381,-1.38 z m -5.75,0 c 0,-0.761 0.611,-1.37 1.371,-1.37 v 0 c 0.76,0 1.379,0.609 1.379,1.37 v 0 c 0,0.76 -0.619,1.38 -1.379,1.38 v 0 c -0.76,0 -1.371,-0.62 -1.371,-1.38 z m -5.76,0 c 0,-0.761 0.611,-1.37 1.371,-1.37 v 0 c 0.76,0 1.379,0.609 1.379,1.37 v 0 c 0,0.76 -0.619,1.38 -1.379,1.38 v 0 c -0.759,0 -1.371,-0.62 -1.371,-1.38 z m -5.759,0 c 0,-0.761 0.621,-1.37 1.381,-1.37 v 0 c 0.75,0 1.369,0.609 1.369,1.37 v 0 c 0,0.76 -0.619,1.38 -1.369,1.38 v 0 c -0.76,0 -1.381,-0.62 -1.381,-1.38 z"
             id="path7685-0-1-3-1-8-9-1" />
          <path
             style="fill:#000000;fill-opacity:0.99607843;stroke:#000400;stroke-opacity:0.99470903"
             inkscape:connector-curvature="0"
             d="m 131.75,109 c -0.359,0 -0.709,-0.15 -0.969,-0.41 -0.25,-0.25 -0.4,-0.6 -0.4,-0.97 0,-0.36 0.15,-0.71 0.4,-0.97 0.52,-0.51 1.439,-0.51 1.949,0 0.25,0.26 0.4,0.609 0.4,0.97 0,0.37 -0.15,0.72 -0.4,0.979 -0.259,0.251 -0.609,0.401 -0.98,0.401 z"
             id="path7687-6-0-8-9-9-20-5" />
        </g>
        <g
           style="fill:#000000;fill-opacity:0.99607843;stroke:#000400;stroke-opacity:0.99470903"
           id="g7689-2-6-6-0-8-2-5">
          <path
             style="fill:#000000;fill-opacity:0.99607843;stroke:#000400;stroke-opacity:0.99470903"
             inkscape:connector-curvature="0"
             d="m 74.182,103.42 c -0.371,0 -0.721,-0.15 -0.98,-0.41 -0.25,-0.25 -0.4,-0.609 -0.4,-0.97 0,-0.361 0.15,-0.72 0.4,-0.97 0.52,-0.51 1.439,-0.51 1.949,0 0.25,0.25 0.4,0.61 0.4,0.97 0,0.36 -0.15,0.72 -0.4,0.97 -0.26,0.26 -0.61,0.41 -0.969,0.41 z"
             id="path7691-6-3-0-89-0-3-4" />
          <path
             style="fill:#000000;fill-opacity:0.99607843;stroke:#000400;stroke-opacity:0.99470903"
             inkscape:connector-curvature="0"
             d="m 124.621,102.04 c 0,-0.76 0.619,-1.37 1.379,-1.37 v 0 c 0.762,0 1.371,0.61 1.371,1.37 v 0 c 0,0.761 -0.609,1.38 -1.371,1.38 v 0 c -0.76,0 -1.379,-0.619 -1.379,-1.38 z m -5.76,0 c 0,-0.76 0.619,-1.37 1.379,-1.37 v 0 c 0.76,0 1.371,0.61 1.371,1.37 v 0 c 0,0.761 -0.611,1.38 -1.371,1.38 v 0 c -0.76,0 -1.379,-0.619 -1.379,-1.38 z m -5.75,0 c 0,-0.76 0.609,-1.37 1.369,-1.37 v 0 c 0.76,0 1.381,0.61 1.381,1.37 v 0 c 0,0.761 -0.621,1.38 -1.381,1.38 v 0 c -0.759,0 -1.369,-0.619 -1.369,-1.38 z m -5.759,0 c 0,-0.76 0.609,-1.37 1.369,-1.37 v 0 c 0.76,0 1.381,0.61 1.381,1.37 v 0 c 0,0.761 -0.621,1.38 -1.381,1.38 v 0 c -0.76,0 -1.369,-0.619 -1.369,-1.38 z m -5.76,0 c 0,-0.76 0.619,-1.37 1.379,-1.37 v 0 c 0.76,0 1.371,0.61 1.371,1.37 v 0 c 0,0.761 -0.611,1.38 -1.371,1.38 v 0 c -0.76,0 -1.379,-0.619 -1.379,-1.38 z m -5.762,0 c 0,-0.76 0.621,-1.37 1.381,-1.37 v 0 c 0.76,0 1.369,0.61 1.369,1.37 v 0 c 0,0.761 -0.609,1.38 -1.369,1.38 v 0 c -0.76,0 -1.381,-0.619 -1.381,-1.38 z m -5.75,0 c 0,-0.76 0.611,-1.37 1.371,-1.37 v 0 c 0.76,0 1.379,0.61 1.379,1.37 v 0 c 0,0.761 -0.619,1.38 -1.379,1.38 v 0 c -0.76,0 -1.371,-0.619 -1.371,-1.38 z m -5.76,0 c 0,-0.76 0.611,-1.37 1.371,-1.37 v 0 c 0.76,0 1.379,0.61 1.379,1.37 v 0 c 0,0.761 -0.619,1.38 -1.379,1.38 v 0 c -0.759,0 -1.371,-0.619 -1.371,-1.38 z m -5.759,0 c 0,-0.76 0.621,-1.37 1.381,-1.37 v 0 c 0.75,0 1.369,0.61 1.369,1.37 v 0 c 0,0.761 -0.619,1.38 -1.369,1.38 v 0 c -0.76,0 -1.381,-0.619 -1.381,-1.38 z"
             id="path7693-1-2-4-8-5-7-7" />
          <path
             style="fill:#000000;fill-opacity:0.99607843;stroke:#000400;stroke-opacity:0.99470903"
             inkscape:connector-curvature="0"
             d="m 131.75,103.42 c -0.35,0 -0.709,-0.15 -0.969,-0.41 -0.25,-0.25 -0.4,-0.609 -0.4,-0.97 0,-0.361 0.15,-0.71 0.4,-0.97 0.52,-0.52 1.439,-0.51 1.949,0 0.25,0.25 0.4,0.61 0.4,0.97 0,0.36 -0.15,0.72 -0.4,0.97 -0.259,0.26 -0.609,0.41 -0.98,0.41 z"
             id="path7695-8-0-8-8-2-5-6" />
        </g>
        <g
           style="fill:#000000;fill-opacity:0.99607843;stroke:#000400;stroke-opacity:0.99470903"
           id="g7697-7-6-8-0-0-9-5">
          <path
             style="fill:#000000;fill-opacity:0.99607843;stroke:#000400;stroke-opacity:0.99470903"
             inkscape:connector-curvature="0"
             d="m 74.182,114.58 c -0.371,0 -0.721,-0.15 -0.98,-0.4 -0.25,-0.26 -0.4,-0.609 -0.4,-0.97 0,-0.37 0.15,-0.72 0.4,-0.979 0.52,-0.51 1.439,-0.51 1.949,0 0.25,0.26 0.4,0.609 0.4,0.979 0,0.36 -0.15,0.71 -0.4,0.97 -0.26,0.25 -0.61,0.4 -0.969,0.4 z"
             id="path7699-9-1-8-3-2-2-6" />
          <path
             style="fill:#000000;fill-opacity:0.99607843;stroke:#000400;stroke-opacity:0.99470903"
             inkscape:connector-curvature="0"
             d="m 124.621,113.21 c 0,-0.76 0.619,-1.38 1.379,-1.38 v 0 c 0.762,0 1.371,0.62 1.371,1.38 v 0 c 0,0.761 -0.609,1.37 -1.371,1.37 v 0 c -0.76,0 -1.379,-0.609 -1.379,-1.37 z m -5.76,0 c 0,-0.76 0.619,-1.38 1.379,-1.38 v 0 c 0.76,0 1.371,0.62 1.371,1.38 v 0 c 0,0.761 -0.611,1.37 -1.371,1.37 v 0 c -0.76,0 -1.379,-0.609 -1.379,-1.37 z m -5.75,0 c 0,-0.76 0.609,-1.38 1.369,-1.38 v 0 c 0.76,0 1.381,0.62 1.381,1.38 v 0 c 0,0.761 -0.621,1.37 -1.381,1.37 v 0 c -0.759,0 -1.369,-0.609 -1.369,-1.37 z m -5.759,0 c 0,-0.76 0.609,-1.38 1.369,-1.38 v 0 c 0.76,0 1.381,0.62 1.381,1.38 v 0 c 0,0.761 -0.621,1.37 -1.381,1.37 v 0 c -0.76,0 -1.369,-0.609 -1.369,-1.37 z m -5.76,0 c 0,-0.76 0.619,-1.38 1.379,-1.38 v 0 c 0.76,0 1.371,0.62 1.371,1.38 v 0 c 0,0.761 -0.611,1.37 -1.371,1.37 v 0 c -0.76,0 -1.379,-0.609 -1.379,-1.37 z m -5.762,0 c 0,-0.76 0.621,-1.38 1.381,-1.38 v 0 c 0.76,0 1.369,0.62 1.369,1.38 v 0 c 0,0.761 -0.609,1.37 -1.369,1.37 v 0 c -0.76,0 -1.381,-0.609 -1.381,-1.37 z m -5.75,0 c 0,-0.76 0.611,-1.38 1.371,-1.38 v 0 c 0.76,0 1.379,0.62 1.379,1.38 v 0 c 0,0.761 -0.619,1.37 -1.379,1.37 v 0 c -0.76,0 -1.371,-0.609 -1.371,-1.37 z m -5.76,0 c 0,-0.76 0.611,-1.38 1.371,-1.38 v 0 c 0.76,0 1.379,0.62 1.379,1.38 v 0 c 0,0.761 -0.619,1.37 -1.379,1.37 v 0 c -0.759,0 -1.371,-0.609 -1.371,-1.37 z m -5.759,0 c 0,-0.76 0.621,-1.38 1.381,-1.38 v 0 c 0.75,0 1.369,0.62 1.369,1.38 v 0 c 0,0.761 -0.619,1.37 -1.369,1.37 v 0 c -0.76,0 -1.381,-0.609 -1.381,-1.37 z"
             id="path7701-2-5-9-7-4-2-9" />
          <path
             style="fill:#000000;fill-opacity:0.99607843;stroke:#000400;stroke-opacity:0.99470903"
             inkscape:connector-curvature="0"
             d="m 131.75,114.58 c -0.35,0 -0.709,-0.15 -0.969,-0.4 -0.25,-0.26 -0.4,-0.609 -0.4,-0.97 0,-0.37 0.15,-0.72 0.4,-0.979 0.52,-0.51 1.439,-0.51 1.949,0.01 0.25,0.25 0.4,0.6 0.4,0.97 0,0.36 -0.15,0.71 -0.4,0.97 -0.259,0.249 -0.609,0.399 -0.98,0.399 z"
             id="path7703-0-5-77-0-3-8-3" />
        </g>
      </g>
      <g
         style="opacity:1;fill:#000000;fill-opacity:0.99607843;stroke:#000400;stroke-opacity:0.99470903"
         transform="matrix(0.18900905,0,0,0.18900905,42.491793,95.774117)"
         id="g7673-2-8-1-3-7-0-0-7">
        <path
           style="fill:#000000;fill-opacity:0.99607843;stroke:#000400;stroke-opacity:0.99470903"
           inkscape:connector-curvature="0"
           d="M 149.924,120.314 H 68.266 c -0.553,0 -1,-0.447 -1,-1 v -23.38 c 0,-0.552 0.447,-1 1,-1 h 81.658 c 0.553,0 1,0.448 1,1 v 23.381 c 0,0.552 -0.447,0.999 -1,0.999 z m -80.658,-2 h 79.658 V 96.934 H 69.266 Z"
           id="path7675-7-4-8-0-7-62-6-4" />
        <path
           style="fill:#000000;fill-opacity:0.99607843;stroke:#000400;stroke-opacity:0.99470903"
           inkscape:connector-curvature="0"
           d="m 68.266,96.934 c -0.365,0 -0.719,-0.201 -0.893,-0.55 -0.25,-0.494 -0.051,-1.095 0.443,-1.343 l 13.846,-6.969 c 0.141,-0.07 0.293,-0.107 0.449,-0.107 h 53.967 c 0.156,0 0.311,0.037 0.449,0.107 l 13.846,6.969 c 0.494,0.248 0.691,0.849 0.443,1.343 -0.246,0.493 -0.848,0.693 -1.342,0.443 L 135.839,89.965 H 82.35 l -13.635,6.862 c -0.145,0.072 -0.297,0.107 -0.449,0.107 z"
           id="path7677-0-5-96-77-9-6-3-5" />
        <path
           style="fill:#000000;fill-opacity:0.99607843;stroke:#000400;stroke-opacity:0.99470903"
           inkscape:connector-curvature="0"
           d="m 149.924,111.092 h -9.844 c -1.912,0 -3.467,-1.555 -3.467,-3.467 0,-1.912 1.555,-3.468 3.467,-3.468 h 9.844 c 0.275,0 0.5,0.224 0.5,0.5 0,0.276 -0.225,0.5 -0.5,0.5 h -9.844 c -1.359,0 -2.467,1.106 -2.467,2.468 0,1.36 1.107,2.467 2.467,2.467 h 9.844 c 0.275,0 0.5,0.224 0.5,0.5 0,0.276 -0.225,0.5 -0.5,0.5 z"
           id="path7679-9-0-4-7-7-1-2-2" />
        <g
           style="fill:#000000;fill-opacity:0.99607843;stroke:#000400;stroke-opacity:0.99470903"
           id="g7681-3-3-3-69-9-8-0-5">
          <path
             style="fill:#000000;fill-opacity:0.99607843;stroke:#000400;stroke-opacity:0.99470903"
             inkscape:connector-curvature="0"
             d="m 74.182,109 c -0.371,0 -0.721,-0.15 -0.98,-0.41 -0.25,-0.25 -0.4,-0.609 -0.4,-0.97 0,-0.361 0.15,-0.71 0.4,-0.97 0.51,-0.51 1.439,-0.51 1.949,0 0.25,0.26 0.4,0.609 0.4,0.97 0,0.37 -0.15,0.72 -0.4,0.97 -0.251,0.26 -0.61,0.41 -0.969,0.41 z"
             id="path7683-6-6-3-1-8-7-6-4" />
          <path
             style="fill:#000000;fill-opacity:0.99607843;stroke:#000400;stroke-opacity:0.99470903"
             inkscape:connector-curvature="0"
             d="m 124.621,107.62 c 0,-0.761 0.619,-1.37 1.379,-1.37 v 0 c 0.762,0 1.371,0.609 1.371,1.37 v 0 c 0,0.76 -0.609,1.38 -1.371,1.38 v 0 c -0.76,0 -1.379,-0.62 -1.379,-1.38 z m -5.76,0 c 0,-0.761 0.619,-1.37 1.379,-1.37 v 0 c 0.76,0 1.371,0.609 1.371,1.37 v 0 c 0,0.76 -0.611,1.38 -1.371,1.38 v 0 c -0.76,0 -1.379,-0.62 -1.379,-1.38 z m -5.75,0 c 0,-0.761 0.609,-1.37 1.369,-1.37 v 0 c 0.76,0 1.381,0.609 1.381,1.37 v 0 c 0,0.76 -0.621,1.38 -1.381,1.38 v 0 c -0.759,0 -1.369,-0.62 -1.369,-1.38 z m -5.759,0 c 0,-0.761 0.609,-1.37 1.369,-1.37 v 0 c 0.76,0 1.381,0.609 1.381,1.37 v 0 c 0,0.76 -0.621,1.38 -1.381,1.38 v 0 c -0.76,0 -1.369,-0.62 -1.369,-1.38 z m -5.76,0 c 0,-0.761 0.619,-1.37 1.379,-1.37 v 0 c 0.76,0 1.371,0.609 1.371,1.37 v 0 c 0,0.76 -0.611,1.38 -1.371,1.38 v 0 c -0.76,0 -1.379,-0.62 -1.379,-1.38 z m -5.762,0 c 0,-0.761 0.621,-1.37 1.381,-1.37 v 0 c 0.76,0 1.369,0.609 1.369,1.37 v 0 c 0,0.76 -0.609,1.38 -1.369,1.38 v 0 c -0.76,0 -1.381,-0.62 -1.381,-1.38 z m -5.75,0 c 0,-0.761 0.611,-1.37 1.371,-1.37 v 0 c 0.76,0 1.379,0.609 1.379,1.37 v 0 c 0,0.76 -0.619,1.38 -1.379,1.38 v 0 c -0.76,0 -1.371,-0.62 -1.371,-1.38 z m -5.76,0 c 0,-0.761 0.611,-1.37 1.371,-1.37 v 0 c 0.76,0 1.379,0.609 1.379,1.37 v 0 c 0,0.76 -0.619,1.38 -1.379,1.38 v 0 c -0.759,0 -1.371,-0.62 -1.371,-1.38 z m -5.759,0 c 0,-0.761 0.621,-1.37 1.381,-1.37 v 0 c 0.75,0 1.369,0.609 1.369,1.37 v 0 c 0,0.76 -0.619,1.38 -1.369,1.38 v 0 c -0.76,0 -1.381,-0.62 -1.381,-1.38 z"
             id="path7685-0-1-3-1-8-9-1-7" />
          <path
             style="fill:#000000;fill-opacity:0.99607843;stroke:#000400;stroke-opacity:0.99470903"
             inkscape:connector-curvature="0"
             d="m 131.75,109 c -0.359,0 -0.709,-0.15 -0.969,-0.41 -0.25,-0.25 -0.4,-0.6 -0.4,-0.97 0,-0.36 0.15,-0.71 0.4,-0.97 0.52,-0.51 1.439,-0.51 1.949,0 0.25,0.26 0.4,0.609 0.4,0.97 0,0.37 -0.15,0.72 -0.4,0.979 -0.259,0.251 -0.609,0.401 -0.98,0.401 z"
             id="path7687-6-0-8-9-9-20-5-4" />
        </g>
        <g
           style="fill:#000000;fill-opacity:0.99607843;stroke:#000400;stroke-opacity:0.99470903"
           id="g7689-2-6-6-0-8-2-5-4">
          <path
             style="fill:#000000;fill-opacity:0.99607843;stroke:#000400;stroke-opacity:0.99470903"
             inkscape:connector-curvature="0"
             d="m 74.182,103.42 c -0.371,0 -0.721,-0.15 -0.98,-0.41 -0.25,-0.25 -0.4,-0.609 -0.4,-0.97 0,-0.361 0.15,-0.72 0.4,-0.97 0.52,-0.51 1.439,-0.51 1.949,0 0.25,0.25 0.4,0.61 0.4,0.97 0,0.36 -0.15,0.72 -0.4,0.97 -0.26,0.26 -0.61,0.41 -0.969,0.41 z"
             id="path7691-6-3-0-89-0-3-4-3" />
          <path
             style="fill:#000000;fill-opacity:0.99607843;stroke:#000400;stroke-opacity:0.99470903"
             inkscape:connector-curvature="0"
             d="m 124.621,102.04 c 0,-0.76 0.619,-1.37 1.379,-1.37 v 0 c 0.762,0 1.371,0.61 1.371,1.37 v 0 c 0,0.761 -0.609,1.38 -1.371,1.38 v 0 c -0.76,0 -1.379,-0.619 -1.379,-1.38 z m -5.76,0 c 0,-0.76 0.619,-1.37 1.379,-1.37 v 0 c 0.76,0 1.371,0.61 1.371,1.37 v 0 c 0,0.761 -0.611,1.38 -1.371,1.38 v 0 c -0.76,0 -1.379,-0.619 -1.379,-1.38 z m -5.75,0 c 0,-0.76 0.609,-1.37 1.369,-1.37 v 0 c 0.76,0 1.381,0.61 1.381,1.37 v 0 c 0,0.761 -0.621,1.38 -1.381,1.38 v 0 c -0.759,0 -1.369,-0.619 -1.369,-1.38 z m -5.759,0 c 0,-0.76 0.609,-1.37 1.369,-1.37 v 0 c 0.76,0 1.381,0.61 1.381,1.37 v 0 c 0,0.761 -0.621,1.38 -1.381,1.38 v 0 c -0.76,0 -1.369,-0.619 -1.369,-1.38 z m -5.76,0 c 0,-0.76 0.619,-1.37 1.379,-1.37 v 0 c 0.76,0 1.371,0.61 1.371,1.37 v 0 c 0,0.761 -0.611,1.38 -1.371,1.38 v 0 c -0.76,0 -1.379,-0.619 -1.379,-1.38 z m -5.762,0 c 0,-0.76 0.621,-1.37 1.381,-1.37 v 0 c 0.76,0 1.369,0.61 1.369,1.37 v 0 c 0,0.761 -0.609,1.38 -1.369,1.38 v 0 c -0.76,0 -1.381,-0.619 -1.381,-1.38 z m -5.75,0 c 0,-0.76 0.611,-1.37 1.371,-1.37 v 0 c 0.76,0 1.379,0.61 1.379,1.37 v 0 c 0,0.761 -0.619,1.38 -1.379,1.38 v 0 c -0.76,0 -1.371,-0.619 -1.371,-1.38 z m -5.76,0 c 0,-0.76 0.611,-1.37 1.371,-1.37 v 0 c 0.76,0 1.379,0.61 1.379,1.37 v 0 c 0,0.761 -0.619,1.38 -1.379,1.38 v 0 c -0.759,0 -1.371,-0.619 -1.371,-1.38 z m -5.759,0 c 0,-0.76 0.621,-1.37 1.381,-1.37 v 0 c 0.75,0 1.369,0.61 1.369,1.37 v 0 c 0,0.761 -0.619,1.38 -1.369,1.38 v 0 c -0.76,0 -1.381,-0.619 -1.381,-1.38 z"
             id="path7693-1-2-4-8-5-7-7-0" />
          <path
             style="fill:#000000;fill-opacity:0.99607843;stroke:#000400;stroke-opacity:0.99470903"
             inkscape:connector-curvature="0"
             d="m 131.75,103.42 c -0.35,0 -0.709,-0.15 -0.969,-0.41 -0.25,-0.25 -0.4,-0.609 -0.4,-0.97 0,-0.361 0.15,-0.71 0.4,-0.97 0.52,-0.52 1.439,-0.51 1.949,0 0.25,0.25 0.4,0.61 0.4,0.97 0,0.36 -0.15,0.72 -0.4,0.97 -0.259,0.26 -0.609,0.41 -0.98,0.41 z"
             id="path7695-8-0-8-8-2-5-6-7" />
        </g>
        <g
           style="fill:#000000;fill-opacity:0.99607843;stroke:#000400;stroke-opacity:0.99470903"
           id="g7697-7-6-8-0-0-9-5-8">
          <path
             style="fill:#000000;fill-opacity:0.99607843;stroke:#000400;stroke-opacity:0.99470903"
             inkscape:connector-curvature="0"
             d="m 74.182,114.58 c -0.371,0 -0.721,-0.15 -0.98,-0.4 -0.25,-0.26 -0.4,-0.609 -0.4,-0.97 0,-0.37 0.15,-0.72 0.4,-0.979 0.52,-0.51 1.439,-0.51 1.949,0 0.25,0.26 0.4,0.609 0.4,0.979 0,0.36 -0.15,0.71 -0.4,0.97 -0.26,0.25 -0.61,0.4 -0.969,0.4 z"
             id="path7699-9-1-8-3-2-2-6-6" />
          <path
             style="fill:#000000;fill-opacity:0.99607843;stroke:#000400;stroke-opacity:0.99470903"
             inkscape:connector-curvature="0"
             d="m 124.621,113.21 c 0,-0.76 0.619,-1.38 1.379,-1.38 v 0 c 0.762,0 1.371,0.62 1.371,1.38 v 0 c 0,0.761 -0.609,1.37 -1.371,1.37 v 0 c -0.76,0 -1.379,-0.609 -1.379,-1.37 z m -5.76,0 c 0,-0.76 0.619,-1.38 1.379,-1.38 v 0 c 0.76,0 1.371,0.62 1.371,1.38 v 0 c 0,0.761 -0.611,1.37 -1.371,1.37 v 0 c -0.76,0 -1.379,-0.609 -1.379,-1.37 z m -5.75,0 c 0,-0.76 0.609,-1.38 1.369,-1.38 v 0 c 0.76,0 1.381,0.62 1.381,1.38 v 0 c 0,0.761 -0.621,1.37 -1.381,1.37 v 0 c -0.759,0 -1.369,-0.609 -1.369,-1.37 z m -5.759,0 c 0,-0.76 0.609,-1.38 1.369,-1.38 v 0 c 0.76,0 1.381,0.62 1.381,1.38 v 0 c 0,0.761 -0.621,1.37 -1.381,1.37 v 0 c -0.76,0 -1.369,-0.609 -1.369,-1.37 z m -5.76,0 c 0,-0.76 0.619,-1.38 1.379,-1.38 v 0 c 0.76,0 1.371,0.62 1.371,1.38 v 0 c 0,0.761 -0.611,1.37 -1.371,1.37 v 0 c -0.76,0 -1.379,-0.609 -1.379,-1.37 z m -5.762,0 c 0,-0.76 0.621,-1.38 1.381,-1.38 v 0 c 0.76,0 1.369,0.62 1.369,1.38 v 0 c 0,0.761 -0.609,1.37 -1.369,1.37 v 0 c -0.76,0 -1.381,-0.609 -1.381,-1.37 z m -5.75,0 c 0,-0.76 0.611,-1.38 1.371,-1.38 v 0 c 0.76,0 1.379,0.62 1.379,1.38 v 0 c 0,0.761 -0.619,1.37 -1.379,1.37 v 0 c -0.76,0 -1.371,-0.609 -1.371,-1.37 z m -5.76,0 c 0,-0.76 0.611,-1.38 1.371,-1.38 v 0 c 0.76,0 1.379,0.62 1.379,1.38 v 0 c 0,0.761 -0.619,1.37 -1.379,1.37 v 0 c -0.759,0 -1.371,-0.609 -1.371,-1.37 z m -5.759,0 c 0,-0.76 0.621,-1.38 1.381,-1.38 v 0 c 0.75,0 1.369,0.62 1.369,1.38 v 0 c 0,0.761 -0.619,1.37 -1.369,1.37 v 0 c -0.76,0 -1.381,-0.609 -1.381,-1.37 z"
             id="path7701-2-5-9-7-4-2-9-8" />
          <path
             style="fill:#000000;fill-opacity:0.99607843;stroke:#000400;stroke-opacity:0.99470903"
             inkscape:connector-curvature="0"
             d="m 131.75,114.58 c -0.35,0 -0.709,-0.15 -0.969,-0.4 -0.25,-0.26 -0.4,-0.609 -0.4,-0.97 0,-0.37 0.15,-0.72 0.4,-0.979 0.52,-0.51 1.439,-0.51 1.949,0.01 0.25,0.25 0.4,0.6 0.4,0.97 0,0.36 -0.15,0.71 -0.4,0.97 -0.259,0.249 -0.609,0.399 -0.98,0.399 z"
             id="path7703-0-5-77-0-3-8-3-8" />
        </g>
      </g>
    </g>
    <rect
       style="opacity:1;fill:none;stroke:#646464;stroke-width:0.2;stroke-linecap:round;stroke-linejoin:round;stroke-miterlimit:4;stroke-dasharray:0.8, 0.8;stroke-dashoffset:0;stroke-opacity:1"
       id="rect6187-4-3-3"
       width="62.413097"
       height="9.5685816"
       x="12.592062"
       y="116.56797"
       ry="1.087339" />
    <text
       xml:space="preserve"
       style="font-style:normal;font-weight:normal;font-size:3.17499995px;line-height:0%;font-family:sans-serif;letter-spacing:0px;word-spacing:0px;opacity:1;fill:#323232;fill-opacity:1;stroke:none;stroke-width:0.26458332"
       x="76.408707"
       y="122.33324"
       id="text12016-5-6-71-0-4-9-3-4"
       inkscape:export-xdpi="180.07326"
       inkscape:export-ydpi="180.07326"><tspan
         sodipodi:role="line"
         x="76.408707"
         y="122.33324"
         style="font-size:2.64583325px;line-height:1.25;fill:#323232;fill-opacity:1;stroke-width:0.26458332"
         id="tspan17828-7-4-29-3">Tandem Group</tspan></text>
    <path
       style="fill:none;fill-rule:evenodd;stroke:#000000;stroke-width:0.26458332px;stroke-linecap:butt;stroke-linejoin:miter;stroke-opacity:1;marker-start:url(#Arrow2Lstart);marker-end:url(#Arrow2Lend)"
       d="m 32.91575,144.26718 10.275996,-16.27033 9.933466,16.52723"
       id="path5823"
       inkscape:connector-curvature="0"
       sodipodi:nodetypes="ccc" />
    <g
       id="g7673-2-8-1-3-7-0-3"
       transform="matrix(0.18900905,0,0,0.18900905,22.448172,73.722643)"
       style="opacity:1;fill:#000000;fill-opacity:0.99607843;stroke:#000400;stroke-opacity:0.99470903">
      <path
         id="path7675-7-4-8-0-7-62-67"
         d="M 149.924,120.314 H 68.266 c -0.553,0 -1,-0.447 -1,-1 v -23.38 c 0,-0.552 0.447,-1 1,-1 h 81.658 c 0.553,0 1,0.448 1,1 v 23.381 c 0,0.552 -0.447,0.999 -1,0.999 z m -80.658,-2 h 79.658 V 96.934 H 69.266 Z"
         inkscape:connector-curvature="0"
         style="fill:#000000;fill-opacity:0.99607843;stroke:#000400;stroke-opacity:0.99470903" />
      <path
         id="path7677-0-5-96-77-9-6-5"
         d="m 68.266,96.934 c -0.365,0 -0.719,-0.201 -0.893,-0.55 -0.25,-0.494 -0.051,-1.095 0.443,-1.343 l 13.846,-6.969 c 0.141,-0.07 0.293,-0.107 0.449,-0.107 h 53.967 c 0.156,0 0.311,0.037 0.449,0.107 l 13.846,6.969 c 0.494,0.248 0.691,0.849 0.443,1.343 -0.246,0.493 -0.848,0.693 -1.342,0.443 L 135.839,89.965 H 82.35 l -13.635,6.862 c -0.145,0.072 -0.297,0.107 -0.449,0.107 z"
         inkscape:connector-curvature="0"
         style="fill:#000000;fill-opacity:0.99607843;stroke:#000400;stroke-opacity:0.99470903" />
      <path
         id="path7679-9-0-4-7-7-1-3"
         d="m 149.924,111.092 h -9.844 c -1.912,0 -3.467,-1.555 -3.467,-3.467 0,-1.912 1.555,-3.468 3.467,-3.468 h 9.844 c 0.275,0 0.5,0.224 0.5,0.5 0,0.276 -0.225,0.5 -0.5,0.5 h -9.844 c -1.359,0 -2.467,1.106 -2.467,2.468 0,1.36 1.107,2.467 2.467,2.467 h 9.844 c 0.275,0 0.5,0.224 0.5,0.5 0,0.276 -0.225,0.5 -0.5,0.5 z"
         inkscape:connector-curvature="0"
         style="fill:#000000;fill-opacity:0.99607843;stroke:#000400;stroke-opacity:0.99470903" />
      <g
         id="g7681-3-3-3-69-9-8-5"
         style="fill:#000000;fill-opacity:0.99607843;stroke:#000400;stroke-opacity:0.99470903">
        <path
           id="path7683-6-6-3-1-8-7-62"
           d="m 74.182,109 c -0.371,0 -0.721,-0.15 -0.98,-0.41 -0.25,-0.25 -0.4,-0.609 -0.4,-0.97 0,-0.361 0.15,-0.71 0.4,-0.97 0.51,-0.51 1.439,-0.51 1.949,0 0.25,0.26 0.4,0.609 0.4,0.97 0,0.37 -0.15,0.72 -0.4,0.97 -0.251,0.26 -0.61,0.41 -0.969,0.41 z"
           inkscape:connector-curvature="0"
           style="fill:#000000;fill-opacity:0.99607843;stroke:#000400;stroke-opacity:0.99470903" />
        <path
           id="path7685-0-1-3-1-8-9-9"
           d="m 124.621,107.62 c 0,-0.761 0.619,-1.37 1.379,-1.37 v 0 c 0.762,0 1.371,0.609 1.371,1.37 v 0 c 0,0.76 -0.609,1.38 -1.371,1.38 v 0 c -0.76,0 -1.379,-0.62 -1.379,-1.38 z m -5.76,0 c 0,-0.761 0.619,-1.37 1.379,-1.37 v 0 c 0.76,0 1.371,0.609 1.371,1.37 v 0 c 0,0.76 -0.611,1.38 -1.371,1.38 v 0 c -0.76,0 -1.379,-0.62 -1.379,-1.38 z m -5.75,0 c 0,-0.761 0.609,-1.37 1.369,-1.37 v 0 c 0.76,0 1.381,0.609 1.381,1.37 v 0 c 0,0.76 -0.621,1.38 -1.381,1.38 v 0 c -0.759,0 -1.369,-0.62 -1.369,-1.38 z m -5.759,0 c 0,-0.761 0.609,-1.37 1.369,-1.37 v 0 c 0.76,0 1.381,0.609 1.381,1.37 v 0 c 0,0.76 -0.621,1.38 -1.381,1.38 v 0 c -0.76,0 -1.369,-0.62 -1.369,-1.38 z m -5.76,0 c 0,-0.761 0.619,-1.37 1.379,-1.37 v 0 c 0.76,0 1.371,0.609 1.371,1.37 v 0 c 0,0.76 -0.611,1.38 -1.371,1.38 v 0 c -0.76,0 -1.379,-0.62 -1.379,-1.38 z m -5.762,0 c 0,-0.761 0.621,-1.37 1.381,-1.37 v 0 c 0.76,0 1.369,0.609 1.369,1.37 v 0 c 0,0.76 -0.609,1.38 -1.369,1.38 v 0 c -0.76,0 -1.381,-0.62 -1.381,-1.38 z m -5.75,0 c 0,-0.761 0.611,-1.37 1.371,-1.37 v 0 c 0.76,0 1.379,0.609 1.379,1.37 v 0 c 0,0.76 -0.619,1.38 -1.379,1.38 v 0 c -0.76,0 -1.371,-0.62 -1.371,-1.38 z m -5.76,0 c 0,-0.761 0.611,-1.37 1.371,-1.37 v 0 c 0.76,0 1.379,0.609 1.379,1.37 v 0 c 0,0.76 -0.619,1.38 -1.379,1.38 v 0 c -0.759,0 -1.371,-0.62 -1.371,-1.38 z m -5.759,0 c 0,-0.761 0.621,-1.37 1.381,-1.37 v 0 c 0.75,0 1.369,0.609 1.369,1.37 v 0 c 0,0.76 -0.619,1.38 -1.369,1.38 v 0 c -0.76,0 -1.381,-0.62 -1.381,-1.38 z"
           inkscape:connector-curvature="0"
           style="fill:#000000;fill-opacity:0.99607843;stroke:#000400;stroke-opacity:0.99470903" />
        <path
           id="path7687-6-0-8-9-9-20-12"
           d="m 131.75,109 c -0.359,0 -0.709,-0.15 -0.969,-0.41 -0.25,-0.25 -0.4,-0.6 -0.4,-0.97 0,-0.36 0.15,-0.71 0.4,-0.97 0.52,-0.51 1.439,-0.51 1.949,0 0.25,0.26 0.4,0.609 0.4,0.97 0,0.37 -0.15,0.72 -0.4,0.979 -0.259,0.251 -0.609,0.401 -0.98,0.401 z"
           inkscape:connector-curvature="0"
           style="fill:#000000;fill-opacity:0.99607843;stroke:#000400;stroke-opacity:0.99470903" />
      </g>
      <g
         id="g7689-2-6-6-0-8-2-7"
         style="fill:#000000;fill-opacity:0.99607843;stroke:#000400;stroke-opacity:0.99470903">
        <path
           id="path7691-6-3-0-89-0-3-0"
           d="m 74.182,103.42 c -0.371,0 -0.721,-0.15 -0.98,-0.41 -0.25,-0.25 -0.4,-0.609 -0.4,-0.97 0,-0.361 0.15,-0.72 0.4,-0.97 0.52,-0.51 1.439,-0.51 1.949,0 0.25,0.25 0.4,0.61 0.4,0.97 0,0.36 -0.15,0.72 -0.4,0.97 -0.26,0.26 -0.61,0.41 -0.969,0.41 z"
           inkscape:connector-curvature="0"
           style="fill:#000000;fill-opacity:0.99607843;stroke:#000400;stroke-opacity:0.99470903" />
        <path
           id="path7693-1-2-4-8-5-7-9"
           d="m 124.621,102.04 c 0,-0.76 0.619,-1.37 1.379,-1.37 v 0 c 0.762,0 1.371,0.61 1.371,1.37 v 0 c 0,0.761 -0.609,1.38 -1.371,1.38 v 0 c -0.76,0 -1.379,-0.619 -1.379,-1.38 z m -5.76,0 c 0,-0.76 0.619,-1.37 1.379,-1.37 v 0 c 0.76,0 1.371,0.61 1.371,1.37 v 0 c 0,0.761 -0.611,1.38 -1.371,1.38 v 0 c -0.76,0 -1.379,-0.619 -1.379,-1.38 z m -5.75,0 c 0,-0.76 0.609,-1.37 1.369,-1.37 v 0 c 0.76,0 1.381,0.61 1.381,1.37 v 0 c 0,0.761 -0.621,1.38 -1.381,1.38 v 0 c -0.759,0 -1.369,-0.619 -1.369,-1.38 z m -5.759,0 c 0,-0.76 0.609,-1.37 1.369,-1.37 v 0 c 0.76,0 1.381,0.61 1.381,1.37 v 0 c 0,0.761 -0.621,1.38 -1.381,1.38 v 0 c -0.76,0 -1.369,-0.619 -1.369,-1.38 z m -5.76,0 c 0,-0.76 0.619,-1.37 1.379,-1.37 v 0 c 0.76,0 1.371,0.61 1.371,1.37 v 0 c 0,0.761 -0.611,1.38 -1.371,1.38 v 0 c -0.76,0 -1.379,-0.619 -1.379,-1.38 z m -5.762,0 c 0,-0.76 0.621,-1.37 1.381,-1.37 v 0 c 0.76,0 1.369,0.61 1.369,1.37 v 0 c 0,0.761 -0.609,1.38 -1.369,1.38 v 0 c -0.76,0 -1.381,-0.619 -1.381,-1.38 z m -5.75,0 c 0,-0.76 0.611,-1.37 1.371,-1.37 v 0 c 0.76,0 1.379,0.61 1.379,1.37 v 0 c 0,0.761 -0.619,1.38 -1.379,1.38 v 0 c -0.76,0 -1.371,-0.619 -1.371,-1.38 z m -5.76,0 c 0,-0.76 0.611,-1.37 1.371,-1.37 v 0 c 0.76,0 1.379,0.61 1.379,1.37 v 0 c 0,0.761 -0.619,1.38 -1.379,1.38 v 0 c -0.759,0 -1.371,-0.619 -1.371,-1.38 z m -5.759,0 c 0,-0.76 0.621,-1.37 1.381,-1.37 v 0 c 0.75,0 1.369,0.61 1.369,1.37 v 0 c 0,0.761 -0.619,1.38 -1.369,1.38 v 0 c -0.76,0 -1.381,-0.619 -1.381,-1.38 z"
           inkscape:connector-curvature="0"
           style="fill:#000000;fill-opacity:0.99607843;stroke:#000400;stroke-opacity:0.99470903" />
        <path
           id="path7695-8-0-8-8-2-5-3"
           d="m 131.75,103.42 c -0.35,0 -0.709,-0.15 -0.969,-0.41 -0.25,-0.25 -0.4,-0.609 -0.4,-0.97 0,-0.361 0.15,-0.71 0.4,-0.97 0.52,-0.52 1.439,-0.51 1.949,0 0.25,0.25 0.4,0.61 0.4,0.97 0,0.36 -0.15,0.72 -0.4,0.97 -0.259,0.26 -0.609,0.41 -0.98,0.41 z"
           inkscape:connector-curvature="0"
           style="fill:#000000;fill-opacity:0.99607843;stroke:#000400;stroke-opacity:0.99470903" />
      </g>
      <g
         id="g7697-7-6-8-0-0-9-6"
         style="fill:#000000;fill-opacity:0.99607843;stroke:#000400;stroke-opacity:0.99470903">
        <path
           id="path7699-9-1-8-3-2-2-0"
           d="m 74.182,114.58 c -0.371,0 -0.721,-0.15 -0.98,-0.4 -0.25,-0.26 -0.4,-0.609 -0.4,-0.97 0,-0.37 0.15,-0.72 0.4,-0.979 0.52,-0.51 1.439,-0.51 1.949,0 0.25,0.26 0.4,0.609 0.4,0.979 0,0.36 -0.15,0.71 -0.4,0.97 -0.26,0.25 -0.61,0.4 -0.969,0.4 z"
           inkscape:connector-curvature="0"
           style="fill:#000000;fill-opacity:0.99607843;stroke:#000400;stroke-opacity:0.99470903" />
        <path
           id="path7701-2-5-9-7-4-2-6"
           d="m 124.621,113.21 c 0,-0.76 0.619,-1.38 1.379,-1.38 v 0 c 0.762,0 1.371,0.62 1.371,1.38 v 0 c 0,0.761 -0.609,1.37 -1.371,1.37 v 0 c -0.76,0 -1.379,-0.609 -1.379,-1.37 z m -5.76,0 c 0,-0.76 0.619,-1.38 1.379,-1.38 v 0 c 0.76,0 1.371,0.62 1.371,1.38 v 0 c 0,0.761 -0.611,1.37 -1.371,1.37 v 0 c -0.76,0 -1.379,-0.609 -1.379,-1.37 z m -5.75,0 c 0,-0.76 0.609,-1.38 1.369,-1.38 v 0 c 0.76,0 1.381,0.62 1.381,1.38 v 0 c 0,0.761 -0.621,1.37 -1.381,1.37 v 0 c -0.759,0 -1.369,-0.609 -1.369,-1.37 z m -5.759,0 c 0,-0.76 0.609,-1.38 1.369,-1.38 v 0 c 0.76,0 1.381,0.62 1.381,1.38 v 0 c 0,0.761 -0.621,1.37 -1.381,1.37 v 0 c -0.76,0 -1.369,-0.609 -1.369,-1.37 z m -5.76,0 c 0,-0.76 0.619,-1.38 1.379,-1.38 v 0 c 0.76,0 1.371,0.62 1.371,1.38 v 0 c 0,0.761 -0.611,1.37 -1.371,1.37 v 0 c -0.76,0 -1.379,-0.609 -1.379,-1.37 z m -5.762,0 c 0,-0.76 0.621,-1.38 1.381,-1.38 v 0 c 0.76,0 1.369,0.62 1.369,1.38 v 0 c 0,0.761 -0.609,1.37 -1.369,1.37 v 0 c -0.76,0 -1.381,-0.609 -1.381,-1.37 z m -5.75,0 c 0,-0.76 0.611,-1.38 1.371,-1.38 v 0 c 0.76,0 1.379,0.62 1.379,1.38 v 0 c 0,0.761 -0.619,1.37 -1.379,1.37 v 0 c -0.76,0 -1.371,-0.609 -1.371,-1.37 z m -5.76,0 c 0,-0.76 0.611,-1.38 1.371,-1.38 v 0 c 0.76,0 1.379,0.62 1.379,1.38 v 0 c 0,0.761 -0.619,1.37 -1.379,1.37 v 0 c -0.759,0 -1.371,-0.609 -1.371,-1.37 z m -5.759,0 c 0,-0.76 0.621,-1.38 1.381,-1.38 v 0 c 0.75,0 1.369,0.62 1.369,1.38 v 0 c 0,0.761 -0.619,1.37 -1.369,1.37 v 0 c -0.76,0 -1.381,-0.609 -1.381,-1.37 z"
           inkscape:connector-curvature="0"
           style="fill:#000000;fill-opacity:0.99607843;stroke:#000400;stroke-opacity:0.99470903" />
        <path
           id="path7703-0-5-77-0-3-8-2"
           d="m 131.75,114.58 c -0.35,0 -0.709,-0.15 -0.969,-0.4 -0.25,-0.26 -0.4,-0.609 -0.4,-0.97 0,-0.37 0.15,-0.72 0.4,-0.979 0.52,-0.51 1.439,-0.51 1.949,0.01 0.25,0.25 0.4,0.6 0.4,0.97 0,0.36 -0.15,0.71 -0.4,0.97 -0.259,0.249 -0.609,0.399 -0.98,0.399 z"
           inkscape:connector-curvature="0"
           style="fill:#000000;fill-opacity:0.99607843;stroke:#000400;stroke-opacity:0.99470903" />
      </g>
    </g>
    <text
       xml:space="preserve"
       style="font-style:normal;font-weight:normal;font-size:3.17499995px;line-height:0%;font-family:sans-serif;letter-spacing:0px;word-spacing:0px;opacity:1;fill:#323232;fill-opacity:1;stroke:none;stroke-width:0.26458332"
       x="53.772346"
       y="94.307152"
       id="text12016-5-6-71-0-4-9-3-4-6"
       inkscape:export-xdpi="180.07326"
       inkscape:export-ydpi="180.07326"><tspan
         sodipodi:role="line"
         x="53.772346"
         y="94.307152"
         style="font-size:2.64583325px;line-height:1.25;fill:#323232;fill-opacity:1;stroke-width:0.26458332"
         id="tspan17828-7-4-29-3-18">Tandem Master</tspan></text>
    <path
       style="fill:none;fill-rule:evenodd;stroke:#000000;stroke-width:0.26499999;stroke-linecap:butt;stroke-linejoin:miter;stroke-miterlimit:4;stroke-dasharray:none;stroke-opacity:1;marker-end:url(#Arrow1Lend)"
       d="M 42.911387,98.466238 V 114.59916"
       id="path8795"
       inkscape:connector-curvature="0" />
  </g>
</svg>
